<?xml version="1.0" encoding="UTF-8" standalone="no"?>
<!-- Generator: Adobe Illustrator 19.0.0, SVG Export Plug-In . SVG Version: 6.00 Build 0)  -->

<svg
   xmlns:dc="http://purl.org/dc/elements/1.1/"
   xmlns:cc="http://creativecommons.org/ns#"
   xmlns:rdf="http://www.w3.org/1999/02/22-rdf-syntax-ns#"
   xmlns:svg="http://www.w3.org/2000/svg"
   xmlns="http://www.w3.org/2000/svg"
   xmlns:sodipodi="http://sodipodi.sourceforge.net/DTD/sodipodi-0.dtd"
   xmlns:inkscape="http://www.inkscape.org/namespaces/inkscape"
   version="1.1"
   id="Capa_1"
   x="0px"
   y="0px"
   viewBox="0 0 512 512"
   style="enable-background:new 0 0 512 512;"
   xml:space="preserve"
   sodipodi:docname="1.svg"
   inkscape:version="0.92.3 (2405546, 2018-03-11)"><metadata
   id="metadata121"><rdf:RDF><cc:Work
       rdf:about=""><dc:format>image/svg+xml</dc:format><dc:type
         rdf:resource="http://purl.org/dc/dcmitype/StillImage" /></cc:Work></rdf:RDF></metadata><defs
   id="defs119" /><sodipodi:namedview
   pagecolor="#ffffff"
   bordercolor="#666666"
   borderopacity="1"
   objecttolerance="10"
   gridtolerance="10"
   guidetolerance="10"
   inkscape:pageopacity="0"
   inkscape:pageshadow="2"
   inkscape:window-width="1366"
   inkscape:window-height="723"
   id="namedview117"
   showgrid="false"
   inkscape:zoom="0.4609375"
   inkscape:cx="68.338983"
   inkscape:cy="256"
   inkscape:window-x="0"
   inkscape:window-y="0"
   inkscape:window-maximized="1"
   inkscape:current-layer="Capa_1" />













<g
   id="g1015"
   style="fill:#437f84;fill-opacity:1"><g
     style="fill:#437f84;fill-opacity:1"
     id="g970"><g
       style="fill:#437f84;fill-opacity:1"
       id="g6"
       transform="matrix(0.70338983,0,0,0.70338983,75.932203,75.932203)">
	<g
   style="fill:#437f84;fill-opacity:1"
   id="g4">
		<path
   style="fill:#437f84;fill-opacity:1"
   d="m 502,40 h -54.254 v -6 c 0,-18.748 -15.252,-34 -34,-34 -18.748,0 -34,15.252 -34,34 v 6 h -89.873 v -6 c 0,-18.748 -15.252,-34 -34,-34 -18.748,0 -34,15.252 -34,34 v 6 H 132 V 34 C 132,15.252 116.748,0 98,0 79.252,0 64,15.252 64,34 v 6 H 10 C 4.477,40 0,44.477 0,50 v 452 c 0,5.522 4.477,10 10,10 h 492 c 5.523,0 10,-4.478 10,-10 V 50 c 0,-5.523 -4.477,-10 -10,-10 z M 399.746,34 c 0,-7.72 6.28,-14 14,-14 7.72,0 14,6.28 14,14 v 6 h -28 z m -157.873,0 c 0,-7.72 6.28,-14 14,-14 7.72,0 14,6.28 14,14 v 6 h -28 z M 84,34 c 0,-7.72 6.28,-14 14,-14 7.72,0 14,6.28 14,14 v 6 H 84 Z M 492,492 H 20 V 138 h 398 c 5.523,0 10,-4.477 10,-10 0,-5.523 -4.477,-10 -10,-10 H 20 V 60 h 44 v 7.168 c 0,18.748 15.252,34 34,34 5.523,0 10,-4.477 10,-10 0,-5.523 -4.477,-10 -10,-10 -7.72,0 -14,-6.28 -14,-14 V 60 h 137.873 v 7.168 c 0,18.748 15.252,34 34,34 5.523,0 10,-4.477 10,-10 0,-5.523 -4.477,-10 -10,-10 -7.72,0 -14,-6.28 -14,-14 V 60 h 137.873 v 7.168 c 0,18.748 15.252,34 34,34 5.523,0 10,-4.477 10,-10 0,-5.523 -4.477,-10 -10,-10 -7.72,0 -14,-6.28 -14,-14 V 60 H 492 Z"
   id="path2"
   inkscape:connector-curvature="0" />
	</g>
</g><g
       style="fill:#437f84;fill-opacity:1"
       id="g12"
       transform="matrix(0.70338983,0,0,0.70338983,75.932203,75.932203)">
	<g
   style="fill:#437f84;fill-opacity:1"
   id="g10">
		<path
   style="fill:#437f84;fill-opacity:1"
   d="M 128,276 H 64 c -5.523,0 -10,4.478 -10,10 v 64 c 0,5.522 4.477,10 10,10 h 64 c 5.523,0 10,-4.478 10,-10 v -64 c 0,-5.522 -4.477,-10 -10,-10 z m -10,64 H 74 v -44 h 44 z"
   id="path8"
   inkscape:connector-curvature="0" />
	</g>
</g><g
       style="fill:#437f84;fill-opacity:1"
       id="g18"
       transform="matrix(0.70338983,0,0,0.70338983,75.932203,75.932203)">
	<g
   style="fill:#437f84;fill-opacity:1"
   id="g16">
		<path
   style="fill:#437f84;fill-opacity:1"
   d="m 448,276 h -64 c -5.523,0 -10,4.478 -10,10 v 64 c 0,5.522 4.477,10 10,10 h 64 c 5.523,0 10,-4.478 10,-10 v -64 c 0,-5.522 -4.477,-10 -10,-10 z m -10,64 h -44 v -44 h 44 z"
   id="path14"
   inkscape:connector-curvature="0" />
	</g>
</g><g
       style="fill:#437f84;fill-opacity:1"
       id="g24"
       transform="matrix(0.70338983,0,0,0.70338983,75.932203,75.932203)">
	<g
   style="fill:#437f84;fill-opacity:1"
   id="g22">
		<path
   style="fill:#437f84;fill-opacity:1"
   d="m 448,380 h -64 c -5.523,0 -10,4.478 -10,10 v 64 c 0,5.522 4.477,10 10,10 h 64 c 5.523,0 10,-4.478 10,-10 v -64 c 0,-5.522 -4.477,-10 -10,-10 z m -10,64 h -44 v -44 h 44 z"
   id="path20"
   inkscape:connector-curvature="0" />
	</g>
</g><g
       style="fill:#437f84;fill-opacity:1"
       id="g30"
       transform="matrix(0.70338983,0,0,0.70338983,75.932203,75.932203)">
	<g
   style="fill:#437f84;fill-opacity:1"
   id="g28">
		<path
   style="fill:#437f84;fill-opacity:1"
   d="m 341.333,276 h -64 c -5.523,0 -10,4.478 -10,10 v 64 c 0,5.522 4.477,10 10,10 h 64 c 5.523,0 10,-4.478 10,-10 v -64 c 0,-5.522 -4.477,-10 -10,-10 z m -10,64 h -44 v -44 h 44 z"
   id="path26"
   inkscape:connector-curvature="0" />
	</g>
</g><g
       style="fill:#437f84;fill-opacity:1"
       id="g36"
       transform="matrix(0.70338983,0,0,0.70338983,75.932203,75.932203)">
	<g
   style="fill:#437f84;fill-opacity:1"
   id="g34">
		<path
   style="fill:#437f84;fill-opacity:1"
   d="m 234.667,276 h -64 c -5.523,0 -10,4.478 -10,10 v 64 c 0,5.522 4.477,10 10,10 h 64 c 5.523,0 10,-4.478 10,-10 v -64 c 0,-5.522 -4.478,-10 -10,-10 z m -10,64 h -44 v -44 h 44 z"
   id="path32"
   inkscape:connector-curvature="0" />
	</g>
</g><g
       style="fill:#437f84;fill-opacity:1"
       id="g42"
       transform="matrix(0.70338983,0,0,0.70338983,75.932203,75.932203)">
	<g
   style="fill:#437f84;fill-opacity:1"
   id="g40">
		<path
   style="fill:#437f84;fill-opacity:1"
   d="M 128,380 H 64 c -5.523,0 -10,4.478 -10,10 v 64 c 0,5.522 4.477,10 10,10 h 64 c 5.523,0 10,-4.478 10,-10 v -64 c 0,-5.522 -4.477,-10 -10,-10 z m -10,64 H 74 v -44 h 44 z"
   id="path38"
   inkscape:connector-curvature="0" />
	</g>
</g><g
       style="fill:#437f84;fill-opacity:1"
       id="g48"
       transform="matrix(0.70338983,0,0,0.70338983,75.932203,75.932203)">
	<g
   style="fill:#437f84;fill-opacity:1"
   id="g46">
		<path
   style="fill:#437f84;fill-opacity:1"
   d="m 341.333,380 h -64 c -5.523,0 -10,4.478 -10,10 v 64 c 0,5.522 4.477,10 10,10 h 64 c 5.523,0 10,-4.478 10,-10 v -64 c 0,-5.522 -4.477,-10 -10,-10 z m -10,64 h -44 v -44 h 44 z"
   id="path44"
   inkscape:connector-curvature="0" />
	</g>
</g><g
       style="fill:#437f84;fill-opacity:1"
       id="g54"
       transform="matrix(0.70338983,0,0,0.70338983,75.932203,75.932203)">
	<g
   style="fill:#437f84;fill-opacity:1"
   id="g52">
		<path
   style="fill:#437f84;fill-opacity:1"
   d="m 234.667,380 h -64 c -5.523,0 -10,4.478 -10,10 v 64 c 0,5.522 4.477,10 10,10 h 64 c 5.523,0 10,-4.478 10,-10 v -64 c 0,-5.522 -4.478,-10 -10,-10 z m -10,64 h -44 v -44 h 44 z"
   id="path50"
   inkscape:connector-curvature="0" />
	</g>
</g><g
       style="fill:#437f84;fill-opacity:1"
       id="g60"
       transform="matrix(0.70338983,0,0,0.70338983,75.932203,75.932203)">
	<g
   style="fill:#437f84;fill-opacity:1"
   id="g58">
		<path
   style="fill:#437f84;fill-opacity:1"
   d="M 128,172 H 64 c -5.523,0 -10,4.477 -10,10 v 64 c 0,5.523 4.477,10 10,10 h 64 c 5.523,0 10,-4.477 10,-10 v -64 c 0,-5.523 -4.477,-10 -10,-10 z m -10,64 H 74 v -44 h 44 z"
   id="path56"
   inkscape:connector-curvature="0" />
	</g>
</g><g
       style="fill:#437f84;fill-opacity:1"
       id="g66"
       transform="matrix(0.70338983,0,0,0.70338983,75.932203,75.932203)">
	<g
   style="fill:#437f84;fill-opacity:1"
   id="g64">
		<path
   style="fill:#437f84;fill-opacity:1"
   d="m 448,172 h -64 c -5.523,0 -10,4.477 -10,10 v 64 c 0,5.523 4.477,10 10,10 h 64 c 5.523,0 10,-4.477 10,-10 v -64 c 0,-5.523 -4.477,-10 -10,-10 z m -10,64 h -44 v -44 h 44 z"
   id="path62"
   inkscape:connector-curvature="0" />
	</g>
</g><g
       style="fill:#437f84;fill-opacity:1"
       id="g72"
       transform="matrix(0.70338983,0,0,0.70338983,75.932203,75.932203)">
	<g
   style="fill:#437f84;fill-opacity:1"
   id="g70">
		<path
   style="fill:#437f84;fill-opacity:1"
   d="m 341.333,172 h -64 c -5.523,0 -10,4.477 -10,10 v 64 c 0,5.523 4.477,10 10,10 h 64 c 5.523,0 10,-4.477 10,-10 v -64 c 0,-5.523 -4.477,-10 -10,-10 z m -10,64 h -44 v -44 h 44 z"
   id="path68"
   inkscape:connector-curvature="0" />
	</g>
</g><g
       style="fill:#437f84;fill-opacity:1"
       id="g78"
       transform="matrix(0.70338983,0,0,0.70338983,75.932203,75.932203)">
	<g
   style="fill:#437f84;fill-opacity:1"
   id="g76">
		<path
   style="fill:#437f84;fill-opacity:1"
   d="m 234.667,172 h -64 c -5.523,0 -10,4.477 -10,10 v 64 c 0,5.523 4.477,10 10,10 h 64 c 5.523,0 10,-4.477 10,-10 v -64 c 0,-5.523 -4.478,-10 -10,-10 z m -10,64 h -44 v -44 h 44 z"
   id="path74"
   inkscape:connector-curvature="0" />
	</g>
</g><g
       style="fill:#437f84;fill-opacity:1"
       id="g84"
       transform="matrix(0.70338983,0,0,0.70338983,75.932203,75.932203)">
	<g
   style="fill:#437f84;fill-opacity:1"
   id="g82">
		<path
   style="fill:#437f84;fill-opacity:1"
   d="M 464.07,120.93 C 462.21,119.07 459.63,118 457,118 c -2.63,0 -5.21,1.07 -7.07,2.93 -1.86,1.86 -2.93,4.44 -2.93,7.07 0,2.63 1.07,5.21 2.93,7.07 1.86,1.86 4.44,2.93 7.07,2.93 2.63,0 5.21,-1.07 7.07,-2.93 1.86,-1.86 2.93,-4.44 2.93,-7.07 0,-2.63 -1.07,-5.21 -2.93,-7.07 z"
   id="path80"
   inkscape:connector-curvature="0" />
	</g>
</g></g></g>
<g
   id="g86">
</g>
<g
   id="g88">
</g>
<g
   id="g90">
</g>
<g
   id="g92">
</g>
<g
   id="g94">
</g>
<g
   id="g96">
</g>
<g
   id="g98">
</g>
<g
   id="g100">
</g>
<g
   id="g102">
</g>
<g
   id="g104">
</g>
<g
   id="g106">
</g>
<g
   id="g108">
</g>
<g
   id="g110">
</g>
<g
   id="g112">
</g>
<g
   id="g114">
</g>
</svg>