<?xml version="1.0" encoding="UTF-8" standalone="no"?>
<!-- Generator: Adobe Illustrator 19.0.0, SVG Export Plug-In . SVG Version: 6.00 Build 0)  -->

<svg
   xmlns:dc="http://purl.org/dc/elements/1.1/"
   xmlns:cc="http://creativecommons.org/ns#"
   xmlns:rdf="http://www.w3.org/1999/02/22-rdf-syntax-ns#"
   xmlns:svg="http://www.w3.org/2000/svg"
   xmlns="http://www.w3.org/2000/svg"
   xmlns:sodipodi="http://sodipodi.sourceforge.net/DTD/sodipodi-0.dtd"
   xmlns:inkscape="http://www.inkscape.org/namespaces/inkscape"
   version="1.1"
   id="Capa_1"
   x="0px"
   y="0px"
   viewBox="0 0 512 512"
   style="enable-background:new 0 0 512 512;"
   xml:space="preserve"
   sodipodi:docname="2.svg"
   inkscape:version="0.92.3 (2405546, 2018-03-11)"><metadata
   id="metadata61"><rdf:RDF><cc:Work
       rdf:about=""><dc:format>image/svg+xml</dc:format><dc:type
         rdf:resource="http://purl.org/dc/dcmitype/StillImage" /></cc:Work></rdf:RDF></metadata><defs
   id="defs59" /><sodipodi:namedview
   pagecolor="#ffffff"
   bordercolor="#666666"
   borderopacity="1"
   objecttolerance="10"
   gridtolerance="10"
   guidetolerance="10"
   inkscape:pageopacity="0"
   inkscape:pageshadow="2"
   inkscape:window-width="1366"
   inkscape:window-height="723"
   id="namedview57"
   showgrid="false"
   inkscape:zoom="0.4609375"
   inkscape:cx="68.338983"
   inkscape:cy="256"
   inkscape:window-x="0"
   inkscape:window-y="0"
   inkscape:window-maximized="1"
   inkscape:current-layer="Capa_1" />



<g
   id="g898"
   transform="matrix(0.70340711,0,0,0.70340711,75.928132,75.92778)"
   style="fill:#437f84;fill-opacity:1"><g
     id="g883"
     style="fill:#437f84;fill-opacity:1"><g
       id="g6"
       style="fill:#437f84;fill-opacity:1">
	<g
   id="g4"
   style="fill:#437f84;fill-opacity:1">
		<path
   d="m 262.603,56.935 c -1.86,-1.86 -4.44,-2.93 -7.07,-2.93 -2.64,0 -5.21,1.069 -7.07,2.93 -1.86,1.86 -2.93,4.44 -2.93,7.07 0,2.63 1.07,5.21 2.93,7.069 1.86,1.861 4.44,2.931 7.07,2.931 2.63,0 5.21,-1.07 7.07,-2.931 1.86,-1.859 2.93,-4.439 2.93,-7.069 0,-2.63 -1.07,-5.21 -2.93,-7.07 z"
   id="path2"
   inkscape:connector-curvature="0"
   style="fill:#437f84;fill-opacity:1" />
	</g>
</g><g
       id="g12"
       style="fill:#437f84;fill-opacity:1">
	<g
   id="g10"
   style="fill:#437f84;fill-opacity:1">
		<path
   d="M 511.987,257.495 V 11.825 c 0,-3.696 -2.039,-7.091 -5.302,-8.828 C 503.421,1.263 499.467,1.466 496.401,3.53 469.949,21.343 448.833,45.092 434.336,72.361 412.827,51.432 388.096,34.617 360.63,22.302 327.638,7.507 292.433,0.006 255.994,0.006 c -45.321,0 -89.211,11.799 -128.018,34.265 V 10.006 c 0,-5.522 -4.477,-10 -10,-10 -5.523,0 -10,4.478 -10,10 v 42.255 c -0.001,0.076 -0.001,0.151 0,0.226 v 43.506 c 0,20.81 -14.532,38.276 -33.978,42.817 V 10.133 c 0,-5.522 -4.477,-10 -10,-10 -5.523,0 -10,4.478 -10,10 V 138.81 C 34.552,134.269 20.02,116.803 20.02,95.993 V 10.006 c 0,-5.522 -4.477,-10 -10,-10 -5.523,0 -10,4.478 -10,10 v 85.987 c 0,20.431 9.639,38.643 24.594,50.364 C 8.493,180.387 0,218.1 0,256 c 0,41.966 10.37,83.508 29.999,120.32 v 101.674 c 0,18.747 15.252,33.999 33.999,33.999 18.748,0 33.999,-15.252 33.999,-33.999 v -20.596 c 44.955,35.341 100.266,54.596 157.996,54.596 40.738,0 81.278,-9.81 117.239,-28.366 26.432,-13.642 50.501,-32.038 70.769,-53.931 v 48.298 c 0,18.747 15.252,33.999 33.999,33.999 18.747,0 33.999,-15.252 33.999,-34 z M 73.998,159.183 c 1.75,-0.276 3.473,-0.631 5.173,-1.046 -1.822,3.275 -3.544,6.594 -5.173,9.952 z M 29.999,280.126 v 43.892 C 23.408,302.05 20,279.097 20,256 c 0,-35.032 7.457,-68.581 22.134,-99.88 3.801,1.386 7.769,2.418 11.865,3.064 v 88.447 c -13.882,4.28 -24,17.227 -24,32.495 z m 47.999,197.868 c 0,7.72 -6.28,14 -14,14 -7.72,0 -14,-6.28 -14,-14 V 280.126 c 0,-7.72 6.28,-14 14,-14 7.72,0 14,6.28 14,14 z M 74.157,247.678 c 3.565,-76.961 56.282,-144.68 130.66,-166.424 5.301,-1.55 8.342,-7.104 6.792,-12.404 -1.55,-5.3 -7.101,-8.342 -12.404,-6.793 -26.011,7.605 -50.372,20.612 -71.359,37.821 0.078,-1.287 0.129,-2.58 0.129,-3.886 V 57.719 c 38.145,-24.686 82.289,-37.713 128.019,-37.713 63.727,0 125.113,26.061 169.421,71.711 -5.052,12.764 -8.745,26.106 -10.96,39.826 -4.96,-6.305 -10.281,-12.339 -15.976,-18.034 -25.026,-25.025 -56.228,-43.062 -90.23,-52.159 -5.333,-1.426 -10.817,1.74 -12.245,7.076 -1.427,5.335 1.741,10.817 7.076,12.244 30.613,8.19 58.712,24.436 81.257,46.981 10.683,10.684 19.963,22.639 27.652,35.545 V 266 c 0,5.522 4.477,10 10,10 h 14.39 c -4.512,40.908 -22.754,79.05 -52.042,108.337 -34.281,34.282 -79.861,53.162 -128.343,53.162 -48.482,0 -94.061,-18.88 -128.343,-53.162 -11.659,-11.656 -21.609,-24.762 -29.654,-38.962 v -65.248 c 0,-15.211 -10.04,-28.119 -23.84,-32.449 z m 369.845,150.94 c -44.482,58.519 -114.503,93.376 -188.008,93.376 -58.634,0 -114.563,-21.539 -157.996,-60.728 v -50.219 c 4.823,6.079 9.988,11.909 15.512,17.433 38.059,38.059 88.661,59.02 142.484,59.02 53.824,0 104.425,-20.961 142.485,-59.02 20.089,-20.089 35.495,-43.935 45.523,-69.936 z M 431.989,256.001 v -93.858 c 0,-50.485 22.121,-97.867 59.998,-130.189 V 256 h -59.998 z m 46.012,235.993 c -7.72,0 -14,-6.28 -14,-14 V 276 h 27.987 L 492,477.994 c 0,7.72 -6.28,14 -13.999,14 z"
   id="path8"
   inkscape:connector-curvature="0"
   style="fill:#437f84;fill-opacity:1" />
	</g>
</g><g
       id="g18"
       style="fill:#437f84;fill-opacity:1">
	<g
   id="g16"
   style="fill:#437f84;fill-opacity:1">
		<path
   d="m 255.994,388.997 c -0.055,0 -0.109,0 -0.164,10e-4 -6.373,0.104 -10.12,5.23 -10.06,10.127 0.06,4.87 3.892,9.877 10.208,9.877 0.033,0 0.065,0 0.098,0 6.374,-0.053 10.162,-5.148 10.142,-10.044 -0.02,-4.896 -3.85,-9.961 -10.224,-9.961 z"
   id="path14"
   inkscape:connector-curvature="0"
   style="fill:#437f84;fill-opacity:1" />
	</g>
</g><g
       id="g24"
       style="fill:#437f84;fill-opacity:1">
	<g
   id="g22"
   style="fill:#437f84;fill-opacity:1">
		<path
   d="m 395.803,287.799 c -5.287,-1.599 -10.867,1.396 -12.462,6.685 -12.613,41.802 -44.963,74.751 -86.537,88.139 -5.257,1.692 -8.146,7.327 -6.453,12.584 1.364,4.237 5.29,6.936 9.516,6.936 1.016,0 2.049,-0.156 3.068,-0.484 47.826,-15.401 85.042,-53.308 99.552,-101.397 1.596,-5.288 -1.396,-10.868 -6.684,-12.463 z"
   id="path20"
   inkscape:connector-curvature="0"
   style="fill:#437f84;fill-opacity:1" />
	</g>
</g></g></g>
<g
   id="g26"
   style="fill:#437f84;fill-opacity:1">
</g>
<g
   id="g28"
   style="fill:#437f84;fill-opacity:1">
</g>
<g
   id="g30"
   style="fill:#437f84;fill-opacity:1">
</g>
<g
   id="g32"
   style="fill:#437f84;fill-opacity:1">
</g>
<g
   id="g34"
   style="fill:#437f84;fill-opacity:1">
</g>
<g
   id="g36"
   style="fill:#437f84;fill-opacity:1">
</g>
<g
   id="g38"
   style="fill:#437f84;fill-opacity:1">
</g>
<g
   id="g40"
   style="fill:#437f84;fill-opacity:1">
</g>
<g
   id="g42"
   style="fill:#437f84;fill-opacity:1">
</g>
<g
   id="g44"
   style="fill:#437f84;fill-opacity:1">
</g>
<g
   id="g46"
   style="fill:#437f84;fill-opacity:1">
</g>
<g
   id="g48"
   style="fill:#437f84;fill-opacity:1">
</g>
<g
   id="g50"
   style="fill:#437f84;fill-opacity:1">
</g>
<g
   id="g52"
   style="fill:#437f84;fill-opacity:1">
</g>
<g
   id="g54"
   style="fill:#437f84;fill-opacity:1">
</g>
</svg>