<?xml version="1.0" encoding="UTF-8" standalone="no"?>
<!-- Generator: Adobe Illustrator 19.0.0, SVG Export Plug-In . SVG Version: 6.00 Build 0)  -->

<svg
   xmlns:dc="http://purl.org/dc/elements/1.1/"
   xmlns:cc="http://creativecommons.org/ns#"
   xmlns:rdf="http://www.w3.org/1999/02/22-rdf-syntax-ns#"
   xmlns:svg="http://www.w3.org/2000/svg"
   xmlns="http://www.w3.org/2000/svg"
   xmlns:sodipodi="http://sodipodi.sourceforge.net/DTD/sodipodi-0.dtd"
   xmlns:inkscape="http://www.inkscape.org/namespaces/inkscape"
   version="1.1"
   id="Capa_1"
   x="0px"
   y="0px"
   viewBox="0 0 512 512"
   style="enable-background:new 0 0 512 512;"
   xml:space="preserve"
   sodipodi:docname="3.svg"
   inkscape:version="0.92.3 (2405546, 2018-03-11)"><metadata
   id="metadata103"><rdf:RDF><cc:Work
       rdf:about=""><dc:format>image/svg+xml</dc:format><dc:type
         rdf:resource="http://purl.org/dc/dcmitype/StillImage" /></cc:Work></rdf:RDF></metadata><defs
   id="defs101" /><sodipodi:namedview
   pagecolor="#ffffff"
   bordercolor="#666666"
   borderopacity="1"
   objecttolerance="10"
   gridtolerance="10"
   guidetolerance="10"
   inkscape:pageopacity="0"
   inkscape:pageshadow="2"
   inkscape:window-width="1366"
   inkscape:window-height="723"
   id="namedview99"
   showgrid="false"
   inkscape:zoom="0.4609375"
   inkscape:cx="68.338983"
   inkscape:cy="256"
   inkscape:window-x="0"
   inkscape:window-y="0"
   inkscape:window-maximized="1"
   inkscape:current-layer="Capa_1" />










<g
   id="g943"
   transform="matrix(0.78633516,0,0,0.78633516,54.698199,54.697806)"
   style="fill:#437f84;fill-opacity:1"><g
     id="g6"
     style="fill:#437f84;fill-opacity:1">
	<g
   id="g4"
   style="fill:#437f84;fill-opacity:1">
		<path
   id="path2"
   d="m 17.08,346.578 c -1.86,-1.86 -4.44,-2.93 -7.07,-2.93 -2.63,0 -5.21,1.07 -7.07,2.93 -1.86,1.86 -2.93,4.44 -2.93,7.07 0,2.64 1.07,5.22 2.93,7.07 1.86,1.87 4.44,2.93 7.07,2.93 2.63,0 5.21,-1.06 7.07,-2.93 1.86,-1.86 2.93,-4.43 2.93,-7.07 0,-2.63 -1.07,-5.21 -2.93,-7.07 z"
   inkscape:connector-curvature="0"
   style="fill:#437f84;fill-opacity:1" />
	</g>
</g><g
     id="g12"
     style="fill:#437f84;fill-opacity:1">
	<g
   id="g10"
   style="fill:#437f84;fill-opacity:1">
		<path
   id="path8"
   d="m 299.845,89.49 c -4.709,-2.886 -10.866,-1.408 -13.751,3.3 -2.886,4.709 -1.409,10.866 3.3,13.751 19.167,11.748 30.609,32.163 30.609,54.611 0,35.289 -28.709,63.999 -63.999,63.999 -35.29,0 -63.999,-28.709 -63.999,-63.999 0,-22.653 12.163,-43.838 31.742,-55.289 4.768,-2.789 6.372,-8.914 3.584,-13.681 -2.789,-4.768 -8.915,-6.372 -13.681,-3.584 -25.688,15.024 -41.645,42.824 -41.645,72.554 0,46.318 37.681,83.999 83.998,83.999 46.317,0 83.998,-37.681 83.998,-83.998 0.002,-29.462 -15.01,-56.251 -40.156,-71.663 z"
   inkscape:connector-curvature="0"
   style="fill:#437f84;fill-opacity:1" />
	</g>
</g><g
     id="g18"
     style="fill:#437f84;fill-opacity:1">
	<g
   id="g16"
   style="fill:#437f84;fill-opacity:1">
		<path
   id="path14"
   d="m 256.365,77.154 h -0.359 c -5.523,0 -10,4.477 -10,10 0,5.523 4.476,10 9.999,10 h 0.266 c 0.016,0 0.032,0 0.048,0 5.5,0 9.973,-4.447 9.999,-9.953 0.026,-5.523 -4.431,-10.021 -9.953,-10.047 z"
   inkscape:connector-curvature="0"
   style="fill:#437f84;fill-opacity:1" />
	</g>
</g><g
     id="g24"
     style="fill:#437f84;fill-opacity:1">
	<g
   id="g22"
   style="fill:#437f84;fill-opacity:1">
		<path
   id="path20"
   d="m 201.746,467.926 c -1.86,-1.86 -4.44,-2.93 -7.07,-2.93 -2.64,0 -5.21,1.07 -7.07,2.93 -1.87,1.86 -2.93,4.44 -2.93,7.07 0,2.63 1.06,5.21 2.93,7.07 1.86,1.86 4.43,2.93 7.07,2.93 2.63,0 5.21,-1.07 7.07,-2.93 1.86,-1.86 2.93,-4.44 2.93,-7.07 0,-2.63 -1.07,-5.21 -2.93,-7.07 z"
   inkscape:connector-curvature="0"
   style="fill:#437f84;fill-opacity:1" />
	</g>
</g><g
     id="g30"
     style="fill:#437f84;fill-opacity:1">
	<g
   id="g28"
   style="fill:#437f84;fill-opacity:1">
		<path
   id="path26"
   d="M 495.01,43.996 C 484.053,33.039 469.487,27.004 453.991,27.004 c -5.523,0 -10,4.477 -10,10 V 139.002 H 384.278 C 375.726,75.847 321.465,27.004 256.004,27.004 190.543,27.004 136.281,75.848 127.73,139.002 H 68.009 V 37.004 c 0,-5.523 -4.477,-10 -10,-10 -15.496,0 -30.062,6.035 -41.019,16.992 C 6.033,54.953 -0.001,69.521 0,85.016 l 0.01,222.638 c 0,5.523 4.478,10 10,10 5.522,0 10,-4.478 10,-10 L 20,85.015 C 20,74.862 23.953,65.316 31.132,58.138 35.889,53.381 41.686,50.039 48.01,48.326 v 321.535 c -27.23,4.753 -47.999,28.565 -47.999,57.136 0,31.98 26.018,57.999 57.999,57.999 h 92.985 c 5.523,0 10,-4.477 10,-10 0,-5.523 -4.477,-10 -10,-10 H 58.009 c -20.953,0 -37.999,-17.047 -37.999,-37.999 0,-20.953 17.047,-37.999 37.999,-37.999 5.523,0 10,-4.477 10,-10 v -86.283 c 0.75,0.18 1.529,0.285 2.333,0.285 h 79.504 c 12.219,0 22.16,9.941 22.16,22.16 0,23.247 18.913,42.159 42.159,42.159 h 25 c 3.771,0 6.84,3.068 6.84,6.84 v 28.799 c 0,23.247 18.913,42.159 42.159,42.159 h 9.087 c 10.635,0 19.287,8.652 19.287,19.287 v 10.593 h -79.689 c -5.523,0 -10,4.477 -10,10 0,5.523 4.477,10 10,10 h 217.144 c 31.98,0 57.999,-26.018 57.999,-57.999 L 512,85.015 C 512.001,69.521 505.967,54.953 495.01,43.996 Z M 385.432,159.001 h 58.559 v 119.665 h -16.553 c -8.681,0 -15.743,-7.062 -15.743,-15.743 0,-19.708 -16.034,-35.741 -35.741,-35.741 h -11.522 c 13.177,-20.219 20.52,-43.9 21,-68.181 z m -317.423,0.001 h 58.568 c 0.201,10.141 1.602,20.184 4.127,29.916 h -6.892 c -16.577,0 -30.062,13.486 -30.062,30.062 0,5.549 -4.515,10.063 -10.063,10.063 H 68.009 Z m 146.157,178.317 c -12.219,-0.001 -22.16,-9.942 -22.16,-22.161 0,-23.247 -18.913,-42.159 -42.159,-42.159 H 70.342 c -0.805,0 -1.584,0.105 -2.333,0.285 v -24.242 h 15.678 c 16.577,0 30.062,-13.486 30.062,-30.062 0,-5.549 4.515,-10.063 10.063,-10.063 h 13.866 c 4.581,10.345 10.512,20.108 17.698,28.977 0.029,0.039 0.058,0.077 0.088,0.115 l 77.214,99.309 H 214.166 Z M 256.008,334.74 171.48,226.026 c -0.115,-0.16 -0.236,-0.317 -0.361,-0.471 C 155.276,206.117 146.551,181.579 146.551,156.46 146.549,96.105 195.65,47.004 256.005,47.004 c 60.354,0 109.456,49.102 109.456,109.456 0,25.388 -8.889,50.129 -25.029,69.666 -0.286,0.347 -0.545,0.708 -0.778,1.083 z M 453.991,464.996 H 336.537 v -10.593 c 0,-21.663 -17.624,-39.286 -39.286,-39.286 h -9.087 c -12.219,0 -22.16,-9.941 -22.16,-22.16 v -28.799 c 0,-2.819 -0.439,-5.537 -1.249,-8.092 l 84.699,-108.885 h 26.5 c 8.68,0 15.742,7.062 15.742,15.743 0,19.708 16.034,35.741 35.742,35.741 h 16.552 v 26 h -21.063 c -22.148,0 -40.166,18.019 -40.166,40.166 0,11.12 -9.047,20.167 -20.167,20.167 h -41.927 c -5.523,0 -10,4.477 -10,10 0,5.523 4.477,10 10,10 h 41.927 c 22.148,0 40.166,-18.019 40.166,-40.166 0,-11.12 9.047,-20.167 20.167,-20.167 h 21.063 v 34.332 c 0,5.523 4.477,10 10,10 20.953,0 37.999,17.047 37.999,37.999 0.001,20.952 -17.045,38 -37.998,38 z m 38,-81.782 c -7.794,-6.773 -17.41,-11.506 -28,-13.354 V 48.326 c 6.324,1.713 12.121,5.054 16.878,9.812 7.178,7.18 11.131,16.725 11.131,26.877 z"
   inkscape:connector-curvature="0"
   style="fill:#437f84;fill-opacity:1" />
	</g>
</g><g
     id="g36"
     style="fill:#437f84;fill-opacity:1">
	<g
   id="g34"
   style="fill:#437f84;fill-opacity:1">
		<path
   id="path32"
   d="m 116.535,402.2 c -4.574,-3.095 -10.791,-1.896 -13.887,2.677 l -3.204,4.734 -3.203,-4.733 c -3.095,-4.574 -9.313,-5.772 -13.886,-2.677 -4.574,3.095 -5.772,9.313 -2.677,13.886 l 11.485,16.971 c 1.86,2.749 4.963,4.396 8.282,4.396 3.319,0 6.421,-1.647 8.282,-4.395 l 11.485,-16.971 c 3.095,-4.575 1.897,-10.792 -2.677,-13.888 z"
   inkscape:connector-curvature="0"
   style="fill:#437f84;fill-opacity:1" />
	</g>
</g><g
     id="g42"
     style="fill:#437f84;fill-opacity:1">
	<g
   id="g40"
   style="fill:#437f84;fill-opacity:1">
		<path
   id="path38"
   d="m 176.635,402.2 c -4.574,-3.095 -10.791,-1.896 -13.887,2.677 l -3.204,4.734 -3.204,-4.734 c -3.095,-4.574 -9.311,-5.771 -13.887,-2.677 -4.574,3.096 -5.772,9.313 -2.677,13.887 l 11.485,16.971 c 1.86,2.749 4.963,4.395 8.282,4.395 3.319,0 6.421,-1.646 8.282,-4.395 l 11.485,-16.971 c 3.096,-4.574 1.898,-10.791 -2.675,-13.887 z"
   inkscape:connector-curvature="0"
   style="fill:#437f84;fill-opacity:1" />
	</g>
</g><g
     id="g48"
     style="fill:#437f84;fill-opacity:1">
	<g
   id="g46"
   style="fill:#437f84;fill-opacity:1">
		<path
   id="path44"
   d="m 116.535,354.13 c -4.574,-3.095 -10.791,-1.896 -13.887,2.677 l -3.204,4.734 -3.203,-4.733 c -3.095,-4.574 -9.313,-5.773 -13.886,-2.677 -4.574,3.095 -5.772,9.313 -2.677,13.886 l 11.485,16.971 c 1.86,2.749 4.963,4.396 8.282,4.396 3.319,0 6.421,-1.647 8.282,-4.395 l 11.485,-16.971 c 3.095,-4.575 1.897,-10.792 -2.677,-13.888 z"
   inkscape:connector-curvature="0"
   style="fill:#437f84;fill-opacity:1" />
	</g>
</g><g
     id="g54"
     style="fill:#437f84;fill-opacity:1">
	<g
   id="g52"
   style="fill:#437f84;fill-opacity:1">
		<path
   id="path50"
   d="m 176.635,354.13 c -4.574,-3.095 -10.791,-1.896 -13.887,2.677 l -3.204,4.734 -3.204,-4.734 c -3.095,-4.574 -9.311,-5.772 -13.887,-2.677 -4.574,3.096 -5.772,9.313 -2.677,13.887 l 11.485,16.971 c 1.86,2.749 4.963,4.395 8.282,4.395 3.319,0 6.421,-1.646 8.282,-4.395 l 11.485,-16.971 c 3.096,-4.574 1.898,-10.791 -2.675,-13.887 z"
   inkscape:connector-curvature="0"
   style="fill:#437f84;fill-opacity:1" />
	</g>
</g><g
     id="g60"
     style="fill:#437f84;fill-opacity:1">
	<g
   id="g58"
   style="fill:#437f84;fill-opacity:1">
		<path
   id="path56"
   d="m 236.734,402.2 c -4.574,-3.095 -10.791,-1.896 -13.887,2.677 l -3.204,4.734 -3.204,-4.734 c -3.095,-4.574 -9.312,-5.771 -13.887,-2.677 -4.574,3.096 -5.772,9.313 -2.677,13.887 l 11.485,16.971 c 1.86,2.749 4.963,4.395 8.282,4.395 3.319,0 6.421,-1.646 8.282,-4.395 l 11.487,-16.971 c 3.095,-4.574 1.897,-10.791 -2.677,-13.887 z"
   inkscape:connector-curvature="0"
   style="fill:#437f84;fill-opacity:1" />
	</g>
</g><g
     id="g66"
     style="fill:#437f84;fill-opacity:1">
	<g
   id="g64"
   style="fill:#437f84;fill-opacity:1">
		<path
   id="path62"
   d="m 436.091,410.686 c -4.574,-3.096 -10.791,-1.896 -13.887,2.677 l -3.204,4.734 -3.204,-4.734 c -3.096,-4.574 -9.312,-5.772 -13.887,-2.677 -4.574,3.096 -5.772,9.313 -2.677,13.887 l 11.485,16.97 c 1.86,2.749 4.963,4.395 8.282,4.395 3.319,0 6.421,-1.646 8.282,-4.395 l 11.485,-16.97 c 3.097,-4.574 1.899,-10.791 -2.675,-13.887 z"
   inkscape:connector-curvature="0"
   style="fill:#437f84;fill-opacity:1" />
	</g>
</g></g>
<g
   id="g68"
   style="fill:#437f84;fill-opacity:1">
</g>
<g
   id="g70"
   style="fill:#437f84;fill-opacity:1">
</g>
<g
   id="g72"
   style="fill:#437f84;fill-opacity:1">
</g>
<g
   id="g74"
   style="fill:#437f84;fill-opacity:1">
</g>
<g
   id="g76"
   style="fill:#437f84;fill-opacity:1">
</g>
<g
   id="g78"
   style="fill:#437f84;fill-opacity:1">
</g>
<g
   id="g80"
   style="fill:#437f84;fill-opacity:1">
</g>
<g
   id="g82"
   style="fill:#437f84;fill-opacity:1">
</g>
<g
   id="g84"
   style="fill:#437f84;fill-opacity:1">
</g>
<g
   id="g86"
   style="fill:#437f84;fill-opacity:1">
</g>
<g
   id="g88"
   style="fill:#437f84;fill-opacity:1">
</g>
<g
   id="g90"
   style="fill:#437f84;fill-opacity:1">
</g>
<g
   id="g92"
   style="fill:#437f84;fill-opacity:1">
</g>
<g
   id="g94"
   style="fill:#437f84;fill-opacity:1">
</g>
<g
   id="g96"
   style="fill:#437f84;fill-opacity:1">
</g>
</svg>