<?xml version="1.0" encoding="UTF-8" standalone="no"?>
<!-- Generator: Adobe Illustrator 19.0.0, SVG Export Plug-In . SVG Version: 6.00 Build 0)  -->

<svg
   xmlns:dc="http://purl.org/dc/elements/1.1/"
   xmlns:cc="http://creativecommons.org/ns#"
   xmlns:rdf="http://www.w3.org/1999/02/22-rdf-syntax-ns#"
   xmlns:svg="http://www.w3.org/2000/svg"
   xmlns="http://www.w3.org/2000/svg"
   xmlns:sodipodi="http://sodipodi.sourceforge.net/DTD/sodipodi-0.dtd"
   xmlns:inkscape="http://www.inkscape.org/namespaces/inkscape"
   version="1.1"
   id="Capa_1"
   x="0px"
   y="0px"
   viewBox="0 0 511.999 511.999"
   style="enable-background:new 0 0 511.999 511.999;"
   xml:space="preserve"
   sodipodi:docname="4.svg"
   inkscape:version="0.92.3 (2405546, 2018-03-11)"><metadata
   id="metadata85"><rdf:RDF><cc:Work
       rdf:about=""><dc:format>image/svg+xml</dc:format><dc:type
         rdf:resource="http://purl.org/dc/dcmitype/StillImage" /></cc:Work></rdf:RDF></metadata><defs
   id="defs83" /><sodipodi:namedview
   pagecolor="#ffffff"
   bordercolor="#666666"
   borderopacity="1"
   objecttolerance="10"
   gridtolerance="10"
   guidetolerance="10"
   inkscape:pageopacity="0"
   inkscape:pageshadow="2"
   inkscape:window-width="1366"
   inkscape:window-height="723"
   id="namedview81"
   showgrid="false"
   inkscape:zoom="0.46093841"
   inkscape:cx="68.338849"
   inkscape:cy="255.9995"
   inkscape:window-x="0"
   inkscape:window-y="0"
   inkscape:window-maximized="1"
   inkscape:current-layer="Capa_1" />







<g
   id="g919"
   transform="matrix(0.70338996,0,0,0.70338996,75.931633,75.931837)"
   style="fill:#437f84;fill-opacity:1"><g
     id="g6"
     style="fill:#437f84;fill-opacity:1">
	<g
   id="g4"
   style="fill:#437f84;fill-opacity:1">
		<path
   id="path2"
   d="m 409.951,446.133 -34.802,-34.1 c -3.421,-3.351 -8.731,-3.808 -12.672,-1.092 C 287.898,462.321 187.21,453.056 123.061,388.907 66.412,332.26 52.219,245.816 86.516,174.52 l 8.411,8.412 c 2.859,2.86 7.16,3.713 10.897,2.168 3.736,-1.548 6.173,-5.194 6.173,-9.238 v -73.995 c 0,-5.522 -4.478,-9.999 -9.999,-9.999 H 28.003 c -4.045,0 -7.69,2.437 -9.238,6.173 -1.548,3.737 -0.691,8.037 2.168,10.897 l 15.443,15.442 c -49.423,82.356 -48.447,186.778 3.117,268.291 2.952,4.668 9.129,6.059 13.796,3.105 4.668,-2.952 6.058,-9.129 3.105,-13.796 C 7.529,304.734 7.949,205.174 57.462,128.337 c 2.55,-3.958 1.994,-9.158 -1.335,-12.487 l -3.984,-3.984 h 39.854 v 39.854 l -0.942,-0.942 c -2.204,-2.203 -5.311,-3.254 -8.398,-2.84 -3.089,0.413 -5.809,2.244 -7.354,4.95 C 28.947,234.03 42.77,336.9 108.919,403.05 c 40.276,40.276 93.561,60.996 147.215,60.992 38.274,-0.003 76.75,-10.555 110.785,-32.073 l 20.488,20.074 c -78.812,52.966 -182.783,53.505 -262.354,0.323 -4.59,-3.067 -10.799,-1.834 -13.87,2.758 -3.068,4.592 -1.834,10.801 2.758,13.87 42.988,28.73 92.531,43.006 142.011,43.006 53.949,0 107.822,-16.981 152.985,-50.713 2.34,-1.747 3.799,-4.43 3.994,-7.344 0.194,-2.912 -0.895,-5.766 -2.98,-7.81 z"
   inkscape:connector-curvature="0"
   style="fill:#437f84;fill-opacity:1" />
	</g>
</g><g
     id="g12"
     style="fill:#437f84;fill-opacity:1">
	<g
   id="g10"
   style="fill:#437f84;fill-opacity:1">
		<path
   id="path8"
   d="m 89.122,422.847 -0.415,-0.417 c -3.906,-3.904 -10.235,-3.904 -14.142,0 -3.905,3.905 -3.905,10.236 0,14.142 l 0.416,0.417 c 1.953,1.952 4.512,2.929 7.07,2.929 2.558,0 5.118,-0.977 7.071,-2.929 3.904,-3.904 3.904,-10.236 0,-14.142 z"
   inkscape:connector-curvature="0"
   style="fill:#437f84;fill-opacity:1" />
	</g>
</g><g
     id="g18"
     style="fill:#437f84;fill-opacity:1">
	<g
   id="g16"
   style="fill:#437f84;fill-opacity:1">
		<path
   id="path14"
   d="m 403.081,108.935 -0.48,-0.48 c -3.906,-3.904 -10.235,-3.904 -14.142,0 -3.905,3.905 -3.905,10.236 0,14.142 l 0.435,0.435 c 1.955,1.967 4.523,2.951 7.094,2.951 2.549,0 5.098,-0.969 7.049,-2.906 3.916,-3.892 3.937,-10.224 0.044,-14.142 z"
   inkscape:connector-curvature="0"
   style="fill:#437f84;fill-opacity:1" />
	</g>
</g><g
     id="g24"
     style="fill:#437f84;fill-opacity:1">
	<g
   id="g22"
   style="fill:#437f84;fill-opacity:1">
		<path
   id="path20"
   d="M 475.6,387.582 C 503.776,340.588 516.205,284.986 510.66,230.087 504.757,171.66 478.597,116.574 436.997,74.973 393.226,31.203 335.147,4.787 273.459,0.591 212.363,-3.558 151.847,14.224 103.041,50.676 c -2.34,1.747 -3.799,4.43 -3.994,7.344 -0.195,2.913 0.893,5.767 2.979,7.81 l 34.803,34.101 c 3.42,3.35 8.73,3.807 12.672,1.092 63.701,-43.888 149.297,-43.884 212.994,0.012 4.548,3.133 10.772,1.987 13.908,-2.56 3.134,-4.548 1.987,-10.774 -2.56,-13.908 C 339.128,60.644 298.379,47.999 256,47.997 c -0.006,0 -0.006,0 -0.011,0 -39.596,0 -77.773,11.038 -110.931,31.999 L 124.573,59.925 c 92.464,-62.065 218.71,-50.381 298.282,29.191 78.029,78.029 91.344,201.888 31.659,294.509 -2.55,3.958 -1.994,9.158 1.335,12.487 l 3.984,3.984 h -39.854 v -39.854 l 0.942,0.942 c 2.204,2.204 5.311,3.257 8.398,2.84 3.089,-0.413 5.809,-2.244 7.354,-4.95 18.806,-32.916 28.219,-70.456 27.225,-108.562 -0.998,-38.234 -12.439,-75.333 -33.091,-107.286 -2.997,-4.639 -9.186,-5.971 -13.825,-2.971 -4.639,2.997 -5.969,9.187 -2.971,13.825 35.816,55.42 39.851,124.544 11.456,183.369 l -8.418,-8.419 c -2.859,-2.86 -7.161,-3.714 -10.897,-2.168 -3.736,1.548 -6.173,5.194 -6.173,9.238 v 73.995 c 0,5.522 4.478,9.999 9.999,9.999 h 73.995 c 4.045,0 7.691,-2.437 9.238,-6.173 1.547,-3.737 0.691,-8.037 -2.168,-10.897 z"
   inkscape:connector-curvature="0"
   style="fill:#437f84;fill-opacity:1" />
	</g>
</g><g
     id="g30"
     style="fill:#437f84;fill-opacity:1">
	<g
   id="g28"
   style="fill:#437f84;fill-opacity:1">
		<path
   id="path26"
   d="m 385.96,319.093 c -3.89,-11.032 -5.862,-22.559 -5.862,-34.256 v -57.713 c 0,-11.697 1.973,-23.224 5.862,-34.256 3.28,-9.303 0.984,-19.415 -5.991,-26.39 -6.975,-6.975 -17.088,-9.273 -26.39,-5.991 -10.569,3.727 -21.612,5.616 -32.819,5.616 H 191.217 c -11.207,0 -22.25,-1.89 -32.819,-5.616 -9.302,-3.282 -19.416,-0.985 -26.39,5.991 -6.976,6.976 -9.27,17.087 -5.991,26.39 3.89,11.032 5.862,22.558 5.862,34.256 v 57.713 c 0,11.697 -1.972,23.223 -5.862,34.256 -3.28,9.303 -0.984,19.415 5.991,26.39 6.975,6.975 17.087,9.272 26.39,5.991 10.569,-3.727 21.612,-5.616 32.819,-5.616 h 129.544 c 11.207,0 22.25,1.89 32.819,5.616 2.805,0.989 5.682,1.471 8.524,1.471 6.589,0 12.993,-2.589 17.865,-7.461 6.976,-6.976 9.271,-17.087 5.991,-26.391 z m -18.859,6.65 c 1.018,2.888 -0.551,4.878 -1.271,5.6 -0.722,0.721 -2.714,2.285 -5.6,1.271 -12.712,-4.482 -25.991,-6.755 -39.469,-6.755 H 191.217 c -13.478,0 -26.757,2.272 -39.469,6.755 -2.886,1.016 -4.877,-0.551 -5.6,-1.271 -0.721,-0.722 -2.289,-2.712 -1.271,-5.6 4.646,-13.174 7.001,-26.936 7.001,-40.905 v -57.713 c 0,-13.968 -2.355,-27.731 -7.001,-40.905 -1.018,-2.888 0.551,-4.878 1.271,-5.6 0.722,-0.721 2.713,-2.286 5.6,-1.271 12.712,4.482 25.991,6.755 39.469,6.755 h 129.544 c 13.478,0 26.757,-2.272 39.469,-6.755 2.888,-1.015 4.878,0.552 5.6,1.271 0.721,0.722 2.289,2.712 1.271,5.6 -4.646,13.174 -7.001,26.936 -7.001,40.905 v 57.713 c 10e-4,13.969 2.356,27.731 7.001,40.905 z"
   inkscape:connector-curvature="0"
   style="fill:#437f84;fill-opacity:1" />
	</g>
</g><g
     id="g36"
     style="fill:#437f84;fill-opacity:1">
	<g
   id="g34"
   style="fill:#437f84;fill-opacity:1">
		<path
   id="path32"
   d="m 205.669,275.324 h -5.563 c 8.083,-9.292 15.562,-21.155 15.562,-33.238 0,-15.25 -10.246,-25.496 -25.496,-25.496 -14.06,0 -25.497,11.437 -25.497,25.496 0,5.522 4.478,9.999 9.999,9.999 5.522,0 9.999,-4.478 9.999,-9.999 0,-3.031 2.467,-5.498 5.499,-5.498 4.622,0 5.498,1.933 5.498,5.498 0,11.561 -18.141,28.698 -26.919,35.181 -3.481,2.561 -4.925,7.067 -3.578,11.173 1.348,4.106 5.181,6.883 9.501,6.883 h 30.995 c 5.522,0 9.999,-4.478 9.999,-9.999 0,-5.522 -4.477,-10 -9.999,-10 z"
   inkscape:connector-curvature="0"
   style="fill:#437f84;fill-opacity:1" />
	</g>
</g><g
     id="g42"
     style="fill:#437f84;fill-opacity:1">
	<g
   id="g40"
   style="fill:#437f84;fill-opacity:1">
		<path
   id="path38"
   d="m 277.612,246.244 v -19.656 c 0,-5.522 -4.478,-9.999 -9.999,-9.999 -5.522,0 -9.999,4.478 -9.999,9.999 v 19.394 h -11.516 v -19.394 c 0,-5.522 -4.478,-9.999 -9.999,-9.999 -5.522,0 -9.999,4.478 -9.999,9.999 v 29.393 c 0,5.522 4.477,9.999 9.999,9.999 h 21.516 v 19.459 c 0,5.522 4.478,9.999 9.999,9.999 5.522,0 9.999,-4.478 9.999,-9.999 v -19.721 c 4.439,-1.021 7.753,-4.989 7.753,-9.737 0,-4.748 -3.314,-8.716 -7.754,-9.737 z"
   inkscape:connector-curvature="0"
   style="fill:#437f84;fill-opacity:1" />
	</g>
</g><g
     id="g48"
     style="fill:#437f84;fill-opacity:1">
	<g
   id="g46"
   style="fill:#437f84;fill-opacity:1">
		<path
   id="path44"
   d="m 322.718,246.152 c -1.568,0 -3.1,0.154 -4.587,0.436 v -19.999 c 0,-5.522 -4.478,-9.999 -9.999,-9.999 -5.522,0 -9.999,4.478 -9.999,9.999 v 44.148 6.382 8.204 c 0,5.522 4.477,9.999 9.999,9.999 5.522,0 9.999,-4.478 9.999,-9.999 v -8.204 -6.382 c 0,-2.529 2.058,-4.587 4.587,-4.587 2.529,0 4.587,2.058 4.587,4.587 v 14.586 c 0,5.522 4.478,9.999 9.999,9.999 5.522,0 9.999,-4.478 9.999,-9.999 v -14.586 c 10e-4,-13.557 -11.028,-24.585 -24.585,-24.585 z"
   inkscape:connector-curvature="0"
   style="fill:#437f84;fill-opacity:1" />
	</g>
</g></g>
<g
   id="g50">
</g>
<g
   id="g52">
</g>
<g
   id="g54">
</g>
<g
   id="g56">
</g>
<g
   id="g58">
</g>
<g
   id="g60">
</g>
<g
   id="g62">
</g>
<g
   id="g64">
</g>
<g
   id="g66">
</g>
<g
   id="g68">
</g>
<g
   id="g70">
</g>
<g
   id="g72">
</g>
<g
   id="g74">
</g>
<g
   id="g76">
</g>
<g
   id="g78">
</g>
</svg>