<?xml version="1.0" encoding="UTF-8" standalone="no"?>
<!-- Generator: Adobe Illustrator 19.0.0, SVG Export Plug-In . SVG Version: 6.00 Build 0)  -->

<svg
   xmlns:dc="http://purl.org/dc/elements/1.1/"
   xmlns:cc="http://creativecommons.org/ns#"
   xmlns:rdf="http://www.w3.org/1999/02/22-rdf-syntax-ns#"
   xmlns:svg="http://www.w3.org/2000/svg"
   xmlns="http://www.w3.org/2000/svg"
   xmlns:sodipodi="http://sodipodi.sourceforge.net/DTD/sodipodi-0.dtd"
   xmlns:inkscape="http://www.inkscape.org/namespaces/inkscape"
   version="1.1"
   id="Capa_1"
   x="0px"
   y="0px"
   viewBox="0 0 512 512"
   style="enable-background:new 0 0 512 512;"
   xml:space="preserve"
   sodipodi:docname="5.svg"
   inkscape:version="0.92.3 (2405546, 2018-03-11)"><metadata
   id="metadata115"><rdf:RDF><cc:Work
       rdf:about=""><dc:format>image/svg+xml</dc:format><dc:type
         rdf:resource="http://purl.org/dc/dcmitype/StillImage" /></cc:Work></rdf:RDF></metadata><defs
   id="defs113" /><sodipodi:namedview
   pagecolor="#ffffff"
   bordercolor="#666666"
   borderopacity="1"
   objecttolerance="10"
   gridtolerance="10"
   guidetolerance="10"
   inkscape:pageopacity="0"
   inkscape:pageshadow="2"
   inkscape:window-width="1366"
   inkscape:window-height="723"
   id="namedview111"
   showgrid="false"
   inkscape:zoom="0.4609375"
   inkscape:cx="68.338983"
   inkscape:cy="256"
   inkscape:window-x="0"
   inkscape:window-y="0"
   inkscape:window-maximized="1"
   inkscape:current-layer="Capa_1" />












<g
   id="g961"
   transform="matrix(0.70339077,0,0,0.70339077,75.932104,75.931925)"
   style="fill:#437f84;fill-opacity:1"><g
     id="g6"
     style="fill:#437f84;fill-opacity:1">
	<g
   id="g4"
   style="fill:#437f84;fill-opacity:1">
		<path
   id="path2"
   d="m 124.461,388.209 c -1.86,-1.86 -4.44,-2.93 -7.07,-2.93 -2.63,0 -5.209,1.07 -7.07,2.93 -1.859,1.859 -2.93,4.439 -2.93,7.07 0,2.63 1.07,5.21 2.93,7.069 1.86,1.86 4.44,2.931 7.07,2.931 2.63,0 5.21,-1.07 7.07,-2.931 1.859,-1.859 2.93,-4.439 2.93,-7.069 0,-2.631 -1.07,-5.211 -2.93,-7.07 z"
   inkscape:connector-curvature="0"
   style="fill:#437f84;fill-opacity:1" />
	</g>
</g><g
     id="g12"
     style="fill:#437f84;fill-opacity:1">
	<g
   id="g10"
   style="fill:#437f84;fill-opacity:1">
		<path
   id="path8"
   d="m 466.42,110.111 c -3.152,-4.536 -9.384,-5.657 -13.919,-2.505 -4.535,3.152 -5.656,9.384 -2.505,13.919 65.153,93.75 53.75,220.486 -27.115,301.352 C 378.306,467.452 319.041,492 256.002,492 192.963,492 133.698,467.452 89.124,422.877 44.549,378.303 20.001,319.037 20.001,255.999 20.001,192.961 44.549,133.695 89.124,89.12 170.648,7.597 298.036,-3.353 392.019,63.086 c 4.511,3.187 10.751,2.114 13.938,-2.394 3.188,-4.51 2.116,-10.75 -2.394,-13.938 C 354.863,12.327 295.121,-3.986 235.348,0.827 174.886,5.692 117.933,32.026 74.981,74.977 26.629,123.33 0.001,187.618 0.001,255.998 c 0,68.38 26.629,132.668 74.98,181.021 48.354,48.353 112.641,74.981 181.021,74.981 68.38,0 132.668,-26.629 181.021,-74.98 42.699,-42.7 69.005,-99.307 74.07,-159.391 5.006,-59.371 -10.86,-118.862 -44.673,-167.518 z"
   inkscape:connector-curvature="0"
   style="fill:#437f84;fill-opacity:1" />
	</g>
</g><g
     id="g18"
     style="fill:#437f84;fill-opacity:1">
	<g
   id="g16"
   style="fill:#437f84;fill-opacity:1">
		<path
   id="path14"
   d="m 437.134,75.09 -0.189,-0.19 c -3.896,-3.917 -10.227,-3.932 -14.142,-0.036 -3.915,3.895 -3.932,10.227 -0.036,14.142 l 0.189,0.19 c 1.954,1.965 4.521,2.947 7.089,2.947 2.551,0 5.102,-0.97 7.053,-2.911 3.915,-3.895 3.932,-10.227 0.036,-14.142 z"
   inkscape:connector-curvature="0"
   style="fill:#437f84;fill-opacity:1" />
	</g>
</g><g
     id="g24"
     style="fill:#437f84;fill-opacity:1">
	<g
   id="g22"
   style="fill:#437f84;fill-opacity:1">
		<path
   id="path20"
   d="m 256.003,49.997 c -113.59,0 -206.001,92.412 -206.001,206.001 0,36.183 9.517,71.775 27.521,102.932 2.763,4.78 8.878,6.417 13.662,3.654 4.781,-2.764 6.418,-8.88 3.654,-13.662 -16.248,-28.116 -24.837,-60.249 -24.837,-92.924 0,-29.836 7.073,-58.048 19.612,-83.064 4.347,10.493 12.582,19.21 23.208,23.972 v 145.637 c 0,12.343 10.042,22.385 22.386,22.385 h 54.621 v 20.768 c 0,12.343 10.042,22.385 22.385,22.385 H 362.966 C 332.692,429.438 295.789,442 256.003,442 c -32.568,-10e-4 -64.609,-8.537 -92.661,-24.686 -4.788,-2.757 -10.901,-1.108 -13.655,3.677 -2.756,4.786 -1.109,10.9 3.677,13.655 31.082,17.896 66.574,27.354 102.639,27.354 113.59,0 206.001,-92.412 206.001,-206.001 0,-113.589 -92.411,-206.002 -206.001,-206.002 z m -10e-4,20 c 69.339,0 129.931,38.144 161.914,94.547 -7.823,-6.575 -17.905,-10.546 -28.901,-10.546 H 356.951 C 355.983,130.04 336.2,110.846 312.009,110.846 H 139.84 C 171.693,85.303 212.09,69.997 256.002,69.997 Z M 122.341,179.208 c -9.659,-3.655 -16.148,-13.049 -16.148,-23.374 0,-13.778 11.21,-24.988 24.988,-24.988 h 180.826 c 13.16,0 23.97,10.229 24.914,23.152 H 208.188 c -20.861,0 -38.447,14.274 -43.515,33.567 -3.524,0.543 -8.162,1.578 -13.584,3.563 -0.194,0.07 -0.387,0.147 -0.576,0.231 -6.625,2.902 -12.572,6.855 -17.69,11.606 v -8.611 c 0,-6.687 -4.212,-12.773 -10.482,-15.146 z m 12.867,165.72 c -1.315,0 -2.386,-1.07 -2.386,-2.385 v -46.646 c 3.988,3.694 8.472,6.902 13.381,9.5 -1.153,4.108 -1.747,8.376 -1.747,12.669 0,9.989 3.151,19.25 8.498,26.862 z m 54.621,-0.044 c -14.121,-0.776 -25.373,-12.507 -25.373,-26.819 0,-4.585 1.18,-9.114 3.412,-13.099 1.459,-2.604 1.679,-5.724 0.599,-8.507 -1.08,-2.782 -3.348,-4.938 -6.182,-5.875 -16.229,-5.369 -27.595,-19.614 -29.463,-36.302 v -9.745 c 1.711,-15.14 11.305,-28.426 25.436,-34.735 2.194,-0.79 4.165,-1.352 5.883,-1.76 2.916,14.003 12.444,26.082 25.688,32.017 z M 397.86,222.36 c -6.271,2.371 -10.485,8.458 -10.485,15.147 v 148.189 c 0,1.315 -1.07,2.385 -2.386,2.385 H 212.214 c -1.316,-0.001 -2.385,-1.07 -2.385,-2.386 V 237.507 c 0,-6.688 -4.213,-12.775 -10.482,-15.146 -9.657,-3.655 -16.146,-13.049 -16.146,-23.374 0,-13.778 11.21,-24.988 24.988,-24.988 h 180.826 c 13.778,0 24.988,11.21 24.988,24.988 0,10.325 -6.488,19.719 -16.143,23.373 z m 9.515,17.698 c 15.206,-6.814 25.515,-21.725 26.538,-38.352 5.254,17.183 8.09,35.411 8.09,54.291 0,40.225 -12.839,77.505 -34.628,107.968 z"
   inkscape:connector-curvature="0"
   style="fill:#437f84;fill-opacity:1" />
	</g>
</g><g
     id="g30"
     style="fill:#437f84;fill-opacity:1">
	<g
   id="g28"
   style="fill:#437f84;fill-opacity:1">
		<path
   id="path26"
   d="m 266.535,335.556 c -3.903,-3.907 -10.236,-3.906 -14.141,0.001 l -5.868,5.869 c -3.905,3.905 -3.904,10.237 10e-4,14.142 1.952,1.953 4.511,2.929 7.07,2.929 2.559,0 5.119,-0.977 7.071,-2.93 l 5.868,-5.869 c 3.905,-3.905 3.904,-10.237 -10e-4,-14.142 z"
   inkscape:connector-curvature="0"
   style="fill:#437f84;fill-opacity:1" />
	</g>
</g><g
     id="g36"
     style="fill:#437f84;fill-opacity:1">
	<g
   id="g34"
   style="fill:#437f84;fill-opacity:1">
		<path
   id="path32"
   d="m 266.536,265.947 c -3.905,-3.904 -10.235,-3.904 -14.142,0 l -5.868,5.868 c -3.905,3.905 -3.905,10.237 0,14.143 1.953,1.952 4.512,2.929 7.071,2.929 2.559,0 5.118,-0.977 7.071,-2.929 l 5.868,-5.868 c 3.905,-3.905 3.905,-10.237 0,-14.143 z"
   inkscape:connector-curvature="0"
   style="fill:#437f84;fill-opacity:1" />
	</g>
</g><g
     id="g42"
     style="fill:#437f84;fill-opacity:1">
	<g
   id="g40"
   style="fill:#437f84;fill-opacity:1">
		<path
   id="path38"
   d="m 308.607,293.742 c -3.906,-3.904 -10.236,-3.904 -14.143,0 l -5.868,5.868 c -3.905,3.905 -3.905,10.237 0,14.143 1.953,1.952 4.512,2.929 7.071,2.929 2.559,0 5.118,-0.977 7.071,-2.929 l 5.868,-5.868 c 3.907,-3.906 3.907,-10.238 0.001,-14.143 z"
   inkscape:connector-curvature="0"
   style="fill:#437f84;fill-opacity:1" />
	</g>
</g><g
     id="g48"
     style="fill:#437f84;fill-opacity:1">
	<g
   id="g46"
   style="fill:#437f84;fill-opacity:1">
		<path
   id="path44"
   d="m 342.829,245.691 c -3.904,-3.906 -10.237,-3.905 -14.142,0.001 l -5.868,5.869 c -3.905,3.905 -3.904,10.237 10e-4,14.142 1.952,1.953 4.511,2.929 7.07,2.929 2.559,0 5.119,-0.977 7.071,-2.93 l 5.868,-5.869 c 3.906,-3.905 3.905,-10.237 0,-14.142 z"
   inkscape:connector-curvature="0"
   style="fill:#437f84;fill-opacity:1" />
	</g>
</g><g
     id="g54"
     style="fill:#437f84;fill-opacity:1">
	<g
   id="g52"
   style="fill:#437f84;fill-opacity:1">
		<path
   id="path50"
   d="m 365.805,200.563 c -3.903,-3.905 -10.236,-3.905 -14.141,-10e-4 l -5.869,5.868 c -3.905,3.904 -3.906,10.236 -0.001,14.142 1.952,1.953 4.512,2.93 7.071,2.93 2.559,0 5.118,-0.977 7.07,-2.929 l 5.869,-5.868 c 3.905,-3.904 3.906,-10.236 0.001,-14.142 z"
   inkscape:connector-curvature="0"
   style="fill:#437f84;fill-opacity:1" />
	</g>
</g><g
     id="g60"
     style="fill:#437f84;fill-opacity:1">
	<g
   id="g58"
   style="fill:#437f84;fill-opacity:1">
		<path
   id="path56"
   d="m 263.603,203.496 c -3.906,-3.904 -10.236,-3.904 -14.143,0 l -5.869,5.869 c -3.905,3.905 -3.905,10.237 0,14.143 1.953,1.952 4.512,2.929 7.071,2.929 2.559,0 5.119,-0.977 7.072,-2.929 l 5.869,-5.869 c 3.905,-3.905 3.905,-10.237 0,-14.143 z"
   inkscape:connector-curvature="0"
   style="fill:#437f84;fill-opacity:1" />
	</g>
</g><g
     id="g66"
     style="fill:#437f84;fill-opacity:1">
	<g
   id="g64"
   style="fill:#437f84;fill-opacity:1">
		<path
   id="path62"
   d="m 362.87,303.095 c -3.904,-3.907 -10.237,-3.906 -14.141,10e-4 l -5.868,5.869 c -3.905,3.905 -3.904,10.237 0.001,14.142 1.952,1.953 4.511,2.929 7.07,2.929 2.559,0 5.119,-0.977 7.071,-2.93 l 5.868,-5.869 c 3.905,-3.905 3.904,-10.237 -10e-4,-14.142 z"
   inkscape:connector-curvature="0"
   style="fill:#437f84;fill-opacity:1" />
	</g>
</g><g
     id="g72"
     style="fill:#437f84;fill-opacity:1">
	<g
   id="g70"
   style="fill:#437f84;fill-opacity:1">
		<path
   id="path68"
   d="m 332.56,338.675 c -3.903,-3.906 -10.236,-3.906 -14.141,-0.001 l -5.869,5.868 c -3.905,3.904 -3.906,10.236 -0.001,14.142 1.952,1.953 4.512,2.93 7.071,2.93 2.559,0 5.118,-0.977 7.07,-2.929 l 5.869,-5.868 c 3.905,-3.904 3.906,-10.236 10e-4,-14.142 z"
   inkscape:connector-curvature="0"
   style="fill:#437f84;fill-opacity:1" />
	</g>
</g><g
     id="g78"
     style="fill:#437f84;fill-opacity:1">
	<g
   id="g76"
   style="fill:#437f84;fill-opacity:1">
		<path
   id="path74"
   d="m 305.659,221.483 c -3.906,-3.904 -10.236,-3.904 -14.143,0 l -5.869,5.869 c -3.905,3.905 -3.905,10.237 0,14.143 1.953,1.952 4.512,2.929 7.071,2.929 2.559,0 5.119,-0.977 7.072,-2.929 l 5.869,-5.869 c 3.905,-3.905 3.905,-10.237 0,-14.143 z"
   inkscape:connector-curvature="0"
   style="fill:#437f84;fill-opacity:1" />
	</g>
</g></g>
<g
   id="g80"
   style="fill:#437f84;fill-opacity:1">
</g>
<g
   id="g82"
   style="fill:#437f84;fill-opacity:1">
</g>
<g
   id="g84"
   style="fill:#437f84;fill-opacity:1">
</g>
<g
   id="g86"
   style="fill:#437f84;fill-opacity:1">
</g>
<g
   id="g88"
   style="fill:#437f84;fill-opacity:1">
</g>
<g
   id="g90"
   style="fill:#437f84;fill-opacity:1">
</g>
<g
   id="g92"
   style="fill:#437f84;fill-opacity:1">
</g>
<g
   id="g94"
   style="fill:#437f84;fill-opacity:1">
</g>
<g
   id="g96"
   style="fill:#437f84;fill-opacity:1">
</g>
<g
   id="g98"
   style="fill:#437f84;fill-opacity:1">
</g>
<g
   id="g100"
   style="fill:#437f84;fill-opacity:1">
</g>
<g
   id="g102"
   style="fill:#437f84;fill-opacity:1">
</g>
<g
   id="g104"
   style="fill:#437f84;fill-opacity:1">
</g>
<g
   id="g106"
   style="fill:#437f84;fill-opacity:1">
</g>
<g
   id="g108"
   style="fill:#437f84;fill-opacity:1">
</g>
</svg>