<?xml version="1.0" encoding="UTF-8" standalone="no"?>
<!-- Generator: Adobe Illustrator 19.0.0, SVG Export Plug-In . SVG Version: 6.00 Build 0)  -->

<svg
   xmlns:dc="http://purl.org/dc/elements/1.1/"
   xmlns:cc="http://creativecommons.org/ns#"
   xmlns:rdf="http://www.w3.org/1999/02/22-rdf-syntax-ns#"
   xmlns:svg="http://www.w3.org/2000/svg"
   xmlns="http://www.w3.org/2000/svg"
   xmlns:sodipodi="http://sodipodi.sourceforge.net/DTD/sodipodi-0.dtd"
   xmlns:inkscape="http://www.inkscape.org/namespaces/inkscape"
   version="1.1"
   id="Capa_1"
   x="0px"
   y="0px"
   viewBox="0 0 512 512"
   style="enable-background:new 0 0 512 512;"
   xml:space="preserve"
   sodipodi:docname="6.svg"
   inkscape:version="0.92.3 (2405546, 2018-03-11)"><metadata
   id="metadata91"><rdf:RDF><cc:Work
       rdf:about=""><dc:format>image/svg+xml</dc:format><dc:type
         rdf:resource="http://purl.org/dc/dcmitype/StillImage" /></cc:Work></rdf:RDF></metadata><defs
   id="defs89" /><sodipodi:namedview
   pagecolor="#ffffff"
   bordercolor="#666666"
   borderopacity="1"
   objecttolerance="10"
   gridtolerance="10"
   guidetolerance="10"
   inkscape:pageopacity="0"
   inkscape:pageshadow="2"
   inkscape:window-width="1366"
   inkscape:window-height="723"
   id="namedview87"
   showgrid="false"
   inkscape:zoom="0.4609375"
   inkscape:cx="68.338983"
   inkscape:cy="256"
   inkscape:window-x="0"
   inkscape:window-y="0"
   inkscape:window-maximized="1"
   inkscape:current-layer="Capa_1" />








<g
   id="g928"
   transform="matrix(0.70339062,0,0,0.70339062,75.932001,75.932001)"
   style="fill:#437f84;fill-opacity:1"><g
     id="g6"
     style="fill:#437f84;fill-opacity:1">
	<g
   id="g4"
   style="fill:#437f84;fill-opacity:1">
		<path
   id="path2"
   d="m 292,32 h -72 c -5.523,0 -10,4.477 -10,10 0,5.523 4.477,10 10,10 h 72 c 5.523,0 10,-4.477 10,-10 0,-5.523 -4.477,-10 -10,-10 z"
   inkscape:connector-curvature="0"
   style="fill:#437f84;fill-opacity:1" />
	</g>
</g><g
     id="g12"
     style="fill:#437f84;fill-opacity:1">
	<g
   id="g10"
   style="fill:#437f84;fill-opacity:1">
		<path
   id="path8"
   d="m 408,238.333 c 5.523,0 10,-4.477 10,-10 V 70 C 418,31.402 386.598,0 348,0 H 164 C 125.402,0 94,31.402 94,70 v 372 c 0,38.598 31.402,70 70,70 h 184 c 38.598,0 70,-31.402 70,-70 V 310.333 c 0,-5.523 -4.477,-10 -10,-10 -5.523,0 -10,4.477 -10,10 V 417.916 H 177.333 c -5.523,0 -10,4.477 -10,10 0,5.523 4.477,10 10,10 H 398 V 442 c 0,27.57 -22.43,50 -50,50 H 164 c -27.57,0 -50,-22.43 -50,-50 V 84 h 284 v 144.333 c 0,5.523 4.477,10 10,10 z M 114.373,64 C 117.348,39.25 138.461,20 164,20 h 184 c 25.539,0 46.652,19.25 49.627,44 z"
   inkscape:connector-curvature="0"
   style="fill:#437f84;fill-opacity:1" />
	</g>
</g><g
     id="g18"
     style="fill:#437f84;fill-opacity:1">
	<g
   id="g16"
   style="fill:#437f84;fill-opacity:1">
		<path
   id="path14"
   d="m 415.07,261.26 c -1.86,-1.86 -4.44,-2.93 -7.07,-2.93 -2.63,0 -5.21,1.07 -7.07,2.93 -1.86,1.86 -2.93,4.44 -2.93,7.07 0,2.64 1.07,5.21 2.93,7.07 1.86,1.87 4.44,2.93 7.07,2.93 2.63,0 5.21,-1.06 7.07,-2.93 1.86,-1.86 2.93,-4.44 2.93,-7.07 0,-2.63 -1.07,-5.2 -2.93,-7.07 z"
   inkscape:connector-curvature="0"
   style="fill:#437f84;fill-opacity:1" />
	</g>
</g><g
     id="g24"
     style="fill:#437f84;fill-opacity:1">
	<g
   id="g22"
   style="fill:#437f84;fill-opacity:1">
		<path
   id="path20"
   d="m 148.24,420.85 c -1.86,-1.87 -4.44,-2.93 -7.07,-2.93 -2.64,0 -5.21,1.06 -7.07,2.93 -1.87,1.85 -2.93,4.43 -2.93,7.07 0,2.63 1.06,5.21 2.93,7.07 1.86,1.86 4.43,2.93 7.07,2.93 2.63,0 5.21,-1.07 7.07,-2.93 1.86,-1.86 2.93,-4.44 2.93,-7.07 0,-2.64 -1.07,-5.21 -2.93,-7.07 z"
   inkscape:connector-curvature="0"
   style="fill:#437f84;fill-opacity:1" />
	</g>
</g><g
     id="g30"
     style="fill:#437f84;fill-opacity:1">
	<g
   id="g28"
   style="fill:#437f84;fill-opacity:1">
		<path
   id="path26"
   d="m 263.07,456.69 c -1.86,-1.86 -4.44,-2.93 -7.07,-2.93 -2.63,0 -5.21,1.07 -7.07,2.93 -1.86,1.86 -2.93,4.44 -2.93,7.07 0,2.63 1.07,5.21 2.93,7.07 1.86,1.86 4.44,2.93 7.07,2.93 2.63,0 5.21,-1.07 7.07,-2.93 1.86,-1.86 2.93,-4.44 2.93,-7.07 0,-2.63 -1.07,-5.21 -2.93,-7.07 z"
   inkscape:connector-curvature="0"
   style="fill:#437f84;fill-opacity:1" />
	</g>
</g><g
     id="g36"
     style="fill:#437f84;fill-opacity:1">
	<g
   id="g34"
   style="fill:#437f84;fill-opacity:1">
		<path
   id="path32"
   d="M 371.527,192.861 C 340.668,162.003 299.64,145.008 256,145.008 c -43.64,0 -84.668,16.995 -115.527,47.853 -3.905,3.905 -3.905,10.237 0,14.142 3.905,3.905 10.237,3.905 14.143,0 55.903,-55.903 146.865,-55.903 202.769,0 1.952,1.953 4.511,2.929 7.071,2.929 2.559,0 5.119,-0.977 7.071,-2.929 3.905,-3.905 3.905,-10.237 0,-14.142 z"
   inkscape:connector-curvature="0"
   style="fill:#437f84;fill-opacity:1" />
	</g>
</g><g
     id="g42"
     style="fill:#437f84;fill-opacity:1">
	<g
   id="g40"
   style="fill:#437f84;fill-opacity:1">
		<path
   id="path38"
   d="m 333.406,230.98 c -42.683,-42.682 -112.131,-42.682 -154.813,0 -3.905,3.905 -3.905,10.237 0,14.143 3.905,3.904 10.237,3.904 14.143,0 16.898,-16.899 39.366,-26.205 63.264,-26.205 23.898,0 46.366,9.306 63.264,26.205 1.953,1.953 4.512,2.929 7.071,2.929 2.559,0 5.119,-0.977 7.071,-2.929 3.905,-3.905 3.905,-10.237 0,-14.143 z"
   inkscape:connector-curvature="0"
   style="fill:#437f84;fill-opacity:1" />
	</g>
</g><g
     id="g48"
     style="fill:#437f84;fill-opacity:1">
	<g
   id="g46"
   style="fill:#437f84;fill-opacity:1">
		<path
   id="path44"
   d="m 293.216,271.171 c -20.521,-20.521 -53.91,-20.521 -74.432,0 -3.905,3.905 -3.905,10.237 0,14.143 3.905,3.905 10.237,3.905 14.143,0 12.723,-12.724 33.424,-12.724 46.146,0 1.953,1.953 4.512,2.929 7.071,2.929 2.559,0 5.119,-0.976 7.072,-2.929 3.905,-3.905 3.905,-10.237 0,-14.143 z"
   inkscape:connector-curvature="0"
   style="fill:#437f84;fill-opacity:1" />
	</g>
</g><g
     id="g54"
     style="fill:#437f84;fill-opacity:1">
	<g
   id="g52"
   style="fill:#437f84;fill-opacity:1">
		<path
   id="path50"
   d="m 277.213,315.778 c -11.697,-11.696 -30.729,-11.696 -42.426,0 -5.666,5.667 -8.787,13.2 -8.787,21.213 0,8.014 3.121,15.547 8.787,21.213 5.85,5.849 13.53,8.772 21.213,8.772 7.682,0 15.365,-2.925 21.213,-8.772 5.667,-5.666 8.787,-13.2 8.787,-21.213 0,-8.013 -3.121,-15.547 -8.787,-21.213 z m -14.142,28.285 c -1.889,1.889 -4.4,2.929 -7.071,2.929 -2.671,0 -5.182,-1.04 -7.071,-2.929 -1.889,-1.889 -2.929,-4.399 -2.929,-7.071 0,-2.671 1.04,-5.182 2.929,-7.071 1.889,-1.889 4.4,-2.929 7.071,-2.929 2.671,0 5.182,1.04 7.071,2.929 1.889,1.889 2.929,4.4 2.929,7.071 0,2.671 -1.04,5.182 -2.929,7.071 z"
   inkscape:connector-curvature="0"
   style="fill:#437f84;fill-opacity:1" />
	</g>
</g></g>
<g
   id="g56"
   style="fill:#437f84;fill-opacity:1">
</g>
<g
   id="g58"
   style="fill:#437f84;fill-opacity:1">
</g>
<g
   id="g60"
   style="fill:#437f84;fill-opacity:1">
</g>
<g
   id="g62"
   style="fill:#437f84;fill-opacity:1">
</g>
<g
   id="g64"
   style="fill:#437f84;fill-opacity:1">
</g>
<g
   id="g66"
   style="fill:#437f84;fill-opacity:1">
</g>
<g
   id="g68"
   style="fill:#437f84;fill-opacity:1">
</g>
<g
   id="g70"
   style="fill:#437f84;fill-opacity:1">
</g>
<g
   id="g72"
   style="fill:#437f84;fill-opacity:1">
</g>
<g
   id="g74"
   style="fill:#437f84;fill-opacity:1">
</g>
<g
   id="g76"
   style="fill:#437f84;fill-opacity:1">
</g>
<g
   id="g78"
   style="fill:#437f84;fill-opacity:1">
</g>
<g
   id="g80"
   style="fill:#437f84;fill-opacity:1">
</g>
<g
   id="g82"
   style="fill:#437f84;fill-opacity:1">
</g>
<g
   id="g84"
   style="fill:#437f84;fill-opacity:1">
</g>
</svg>