<?xml version="1.0" encoding="UTF-8" standalone="no"?>
<!-- Generator: Adobe Illustrator 19.0.0, SVG Export Plug-In . SVG Version: 6.00 Build 0)  -->

<svg
   xmlns:dc="http://purl.org/dc/elements/1.1/"
   xmlns:cc="http://creativecommons.org/ns#"
   xmlns:rdf="http://www.w3.org/1999/02/22-rdf-syntax-ns#"
   xmlns:svg="http://www.w3.org/2000/svg"
   xmlns="http://www.w3.org/2000/svg"
   xmlns:sodipodi="http://sodipodi.sourceforge.net/DTD/sodipodi-0.dtd"
   xmlns:inkscape="http://www.inkscape.org/namespaces/inkscape"
   version="1.1"
   id="Capa_1"
   x="0px"
   y="0px"
   viewBox="0 0 512 512"
   style="enable-background:new 0 0 512 512;"
   xml:space="preserve"
   sodipodi:docname="7.svg"
   inkscape:version="0.92.3 (2405546, 2018-03-11)"><metadata
   id="metadata61"><rdf:RDF><cc:Work
       rdf:about=""><dc:format>image/svg+xml</dc:format><dc:type
         rdf:resource="http://purl.org/dc/dcmitype/StillImage" /></cc:Work></rdf:RDF></metadata><defs
   id="defs59" /><sodipodi:namedview
   pagecolor="#ffffff"
   bordercolor="#666666"
   borderopacity="1"
   objecttolerance="10"
   gridtolerance="10"
   guidetolerance="10"
   inkscape:pageopacity="0"
   inkscape:pageshadow="2"
   inkscape:window-width="1366"
   inkscape:window-height="723"
   id="namedview57"
   showgrid="false"
   inkscape:zoom="0.4609375"
   inkscape:cx="68.338983"
   inkscape:cy="256"
   inkscape:window-x="0"
   inkscape:window-y="0"
   inkscape:window-maximized="1"
   inkscape:current-layer="Capa_1" />



<g
   id="g883"
   transform="matrix(0.78632314,0,0,0.78632314,54.701276,54.701276)"
   style="fill:#437f84;fill-opacity:1"><g
     id="g6"
     style="fill:#437f84;fill-opacity:1">
	<g
   id="g4"
   style="fill:#437f84;fill-opacity:1">
		<path
   id="path2"
   d="m 450.836,325.612 h -11.297 c -0.016,0 -0.03,0 -0.046,0 h -17.854 l -32.875,-77.44 C 380.762,229.323 362.36,217.143 341.882,217.143 H 208.801 c -20.478,0 -38.88,12.18 -46.882,31.029 l -32.875,77.44 h -13.879 c -7.36,0 -14.42,1.308 -20.961,3.701 V 191 H 156 c 13.233,0 24,-10.767 24,-24 V 51 C 180,37.767 169.233,27 156,27 H 24 C 10.767,27 0,37.767 0,51 v 116 c 0,13.233 10.767,24 24,24 H 74.203 V 341.397 C 61.805,352.598 54,368.792 54,386.777 v 58.328 c 0,2.655 1.056,5.201 2.935,7.077 1.875,1.872 4.416,2.923 7.065,2.923 0.005,0 0.011,0 0.016,0 l 10.188,-0.016 V 465 H 10 c -5.522,0 -10,4.477 -10,10 0,5.523 4.478,10 10,10 h 196.986 c 5.522,0 10,-4.477 10,-10 0,-5.523 -4.478,-10 -10,-10 h -13.161 c 1.792,-3.094 3.192,-6.442 4.107,-9.985 h 76.137 c 0.418,0.053 0.841,0.09 1.273,0.09 0.432,0 0.855,-0.037 1.273,-0.09 h 105.811 c 0.916,3.543 2.315,6.892 4.107,9.985 H 315 c -5.522,0 -10,4.477 -10,10 0,5.523 4.478,10 10,10 h 157.303 c 5.522,0 10,-4.477 10,-10 0,-5.523 -4.478,-10 -10,-10 h -16.516 c 1.791,-3.091 3.189,-6.436 4.104,-9.975 l 42.09,0.08 c 0.006,0 0.012,0 0.019,0 2.648,0 5.189,-1.051 7.064,-2.922 1.879,-1.876 2.936,-4.422 2.936,-7.078 v -58.328 c 0,-33.726 -27.438,-61.165 -61.164,-61.165 z M 24,171 c -2.206,0 -4,-1.794 -4,-4 V 51 c 0,-2.206 1.794,-4 4,-4 h 132 c 2.206,0 4,1.794 4,4 v 116 c 0,2.206 -1.794,4 -4,4 z m 50,215.777 c 0,-4.362 0.688,-8.564 1.95,-12.512 h 18.48 v 20.706 H 74 Z M 94.203,465 v -9.943 l 26.261,-0.041 c 0.915,3.543 2.314,6.891 4.107,9.984 z m 65.284,0 h -0.578 c -10.894,-0.157 -19.711,-9.055 -19.711,-19.985 0,-11.028 8.972,-20 20,-20 11.028,0 20,8.972 20,20 0,10.93 -8.817,19.828 -19.711,19.985 z m 105.855,-29.985 h -67.409 c -4.452,-17.233 -20.13,-30 -38.734,-30 -18.604,0 -34.283,12.768 -38.734,30.001 L 74,435.089 v -20.118 h 30.43 c 5.522,0 10,-4.477 10,-10 v -40.706 c 0,-5.523 -4.478,-10 -10,-10 H 89.961 c 6.97,-5.416 15.713,-8.652 25.203,-8.652 h 20.498 129.68 z m 0,-109.402 h -58.866 l 28.818,-28.817 c 3.905,-3.905 3.905,-10.237 0,-14.142 -3.905,-3.905 -10.235,-3.905 -14.143,0 l -42.961,42.96 h -27.419 l 29.558,-69.626 c 4.859,-11.448 16.035,-18.844 28.472,-18.844 h 56.541 z m 221.699,41.59 h -26.857 l -6.875,-21.51 c 14.572,0.868 27.129,9.345 33.732,21.51 z M 285.342,237.143 h 54.094 l -31.302,31.301 c -3.905,3.905 -3.905,10.237 0,14.142 1.953,1.953 4.512,2.929 7.071,2.929 2.559,0 5.118,-0.977 7.071,-2.929 l 38.781,-38.781 c 3.986,3.151 7.22,7.292 9.296,12.181 l 29.558,69.626 H 285.342 Z M 421.449,465 h -0.578 c -10.894,-0.157 -19.711,-9.055 -19.711,-19.985 0,-11.028 8.972,-20 20,-20 11.028,0 20,8.972 20,20 0,10.93 -8.817,19.828 -19.711,19.985 z M 492,435.086 459.897,435.025 c -4.448,-17.238 -20.13,-30.01 -38.737,-30.01 -18.604,0 -34.282,12.767 -38.734,30 h -97.084 v -89.402 h 129.679 17.264 l 11.072,34.636 c 1.324,4.143 5.176,6.955 9.525,6.955 H 492 Z"
   inkscape:connector-curvature="0"
   style="fill:#437f84;fill-opacity:1" />
	</g>
</g><g
     id="g12"
     style="fill:#437f84;fill-opacity:1">
	<g
   id="g10"
   style="fill:#437f84;fill-opacity:1">
		<path
   id="path8"
   d="m 230.309,374.551 c -5.522,0 -10,4.477 -10,10 v 0.134 c 0,5.523 4.477,10 10,10 5.522,0 10,-4.477 10,-10 v -0.134 c 0,-5.523 -4.478,-10 -10,-10 z"
   inkscape:connector-curvature="0"
   style="fill:#437f84;fill-opacity:1" />
	</g>
</g><g
     id="g18"
     style="fill:#437f84;fill-opacity:1">
	<g
   id="g16"
   style="fill:#437f84;fill-opacity:1">
		<path
   id="path14"
   d="M 98,64.666 H 78 c -5.522,0 -10,4.477 -10,10 v 20 20 28.667 c 0,5.523 4.478,10 10,10 5.522,0 10,-4.477 10,-10 v -18.667 h 10 c 16.542,0 30,-13.458 30,-30 0,-16.542 -13.458,-30 -30,-30 z m 0,40.001 H 88 v -10 -10 h 10 c 5.514,0 10,4.486 10,10 0,5.514 -4.486,10 -10,10 z"
   inkscape:connector-curvature="0"
   style="fill:#437f84;fill-opacity:1" />
	</g>
</g><g
     id="g24"
     style="fill:#437f84;fill-opacity:1">
	<g
   id="g22"
   style="fill:#437f84;fill-opacity:1">
		<path
   id="path20"
   d="m 282.389,467.927 c -1.859,-1.86 -4.439,-2.93 -7.07,-2.93 -2.64,0 -5.21,1.07 -7.069,2.93 -1.86,1.86 -2.931,4.44 -2.931,7.07 0,2.64 1.07,5.21 2.931,7.07 1.859,1.86 4.439,2.93 7.069,2.93 2.631,0 5.211,-1.07 7.07,-2.93 1.86,-1.86 2.93,-4.44 2.93,-7.07 0,-2.63 -1.069,-5.21 -2.93,-7.07 z"
   inkscape:connector-curvature="0"
   style="fill:#437f84;fill-opacity:1" />
	</g>
</g></g>
<g
   id="g26"
   style="fill:#437f84;fill-opacity:1">
</g>
<g
   id="g28"
   style="fill:#437f84;fill-opacity:1">
</g>
<g
   id="g30"
   style="fill:#437f84;fill-opacity:1">
</g>
<g
   id="g32"
   style="fill:#437f84;fill-opacity:1">
</g>
<g
   id="g34"
   style="fill:#437f84;fill-opacity:1">
</g>
<g
   id="g36"
   style="fill:#437f84;fill-opacity:1">
</g>
<g
   id="g38"
   style="fill:#437f84;fill-opacity:1">
</g>
<g
   id="g40"
   style="fill:#437f84;fill-opacity:1">
</g>
<g
   id="g42"
   style="fill:#437f84;fill-opacity:1">
</g>
<g
   id="g44"
   style="fill:#437f84;fill-opacity:1">
</g>
<g
   id="g46"
   style="fill:#437f84;fill-opacity:1">
</g>
<g
   id="g48"
   style="fill:#437f84;fill-opacity:1">
</g>
<g
   id="g50"
   style="fill:#437f84;fill-opacity:1">
</g>
<g
   id="g52"
   style="fill:#437f84;fill-opacity:1">
</g>
<g
   id="g54"
   style="fill:#437f84;fill-opacity:1">
</g>
</svg>