<?xml version="1.0" encoding="UTF-8" standalone="no"?>
<!-- Generator: Adobe Illustrator 19.0.0, SVG Export Plug-In . SVG Version: 6.00 Build 0)  -->

<svg
   xmlns:dc="http://purl.org/dc/elements/1.1/"
   xmlns:cc="http://creativecommons.org/ns#"
   xmlns:rdf="http://www.w3.org/1999/02/22-rdf-syntax-ns#"
   xmlns:svg="http://www.w3.org/2000/svg"
   xmlns="http://www.w3.org/2000/svg"
   xmlns:sodipodi="http://sodipodi.sourceforge.net/DTD/sodipodi-0.dtd"
   xmlns:inkscape="http://www.inkscape.org/namespaces/inkscape"
   version="1.1"
   id="Capa_1"
   x="0px"
   y="0px"
   viewBox="0 0 511.999 511.999"
   style="enable-background:new 0 0 511.999 511.999;"
   xml:space="preserve"
   sodipodi:docname="8.svg"
   inkscape:version="0.92.3 (2405546, 2018-03-11)"><metadata
   id="metadata61"><rdf:RDF><cc:Work
       rdf:about=""><dc:format>image/svg+xml</dc:format><dc:type
         rdf:resource="http://purl.org/dc/dcmitype/StillImage" /></cc:Work></rdf:RDF></metadata><defs
   id="defs59" /><sodipodi:namedview
   pagecolor="#ffffff"
   bordercolor="#666666"
   borderopacity="1"
   objecttolerance="10"
   gridtolerance="10"
   guidetolerance="10"
   inkscape:pageopacity="0"
   inkscape:pageshadow="2"
   inkscape:window-width="1366"
   inkscape:window-height="723"
   id="namedview57"
   showgrid="false"
   inkscape:zoom="0.46093841"
   inkscape:cx="68.338849"
   inkscape:cy="255.9995"
   inkscape:window-x="0"
   inkscape:window-y="0"
   inkscape:window-maximized="1"
   inkscape:current-layer="Capa_1" />



<g
   id="g883"
   transform="matrix(0.89140337,0,0,0.89140337,27.800501,27.800296)"
   style="fill:#437f84;fill-opacity:1"><g
     id="g6"
     style="fill:#437f84;fill-opacity:1">
	<g
   id="g4"
   style="fill:#437f84;fill-opacity:1">
		<path
   id="path2"
   d="M 509.071,193.915 441.819,126.661 V 66.464 c 0,-3.27 -1.634,-6.318 -4.315,-8.188 -2.681,-1.871 -6.142,-2.301 -9.211,-1.169 -27.635,10.174 -50.011,30.273 -63.076,56.64 L 324.138,175.787 68.271,54.956 C 63.278,52.595 57.317,54.734 54.958,59.727 52.6,64.721 54.736,70.682 59.73,73.04 l 253.251,119.593 -11.479,17.336 H 134.017 c -18.558,0 -35.646,6.368 -49.235,17.01 C 48.761,225.207 20,195.348 20,158.895 v -9.111 c 0,-5.522 -4.477,-10 -10,-10 -5.523,0 -10,4.478 -10,10 v 9.111 c 0,41.701 29.101,76.732 68.062,85.856 -8.86,12.877 -14.061,28.458 -14.061,45.237 v 158.017 c 0,5.522 4.477,10 10,10 h 49.056 c 5.523,0 10,-4.478 10,-10 v -77.668 h 132.197 c 5.523,0 10,-4.478 10,-10 0,-5.522 -4.477,-10 -10,-10 H 135.866 l 9.234,-9.234 c 3.906,-3.905 3.906,-10.237 0,-14.143 -3.904,-3.904 -10.237,-3.904 -14.142,0 l -24.973,24.973 c -1.875,1.876 -2.929,4.419 -2.929,7.071 v 79.001 H 74.001 V 289.987 c 0,-7.133 1.257,-13.976 3.551,-20.328 h 85.689 c 5.523,0 10,-4.478 10,-10 0,-5.522 -4.477,-10 -10,-10 H 89.607 c 10.986,-12.087 26.827,-19.688 44.41,-19.688 h 169.607 l 72.649,72.649 c -1.504,10.714 -2.268,21.538 -2.268,32.382 V 438.003 H 344.95 V 335.986 c 0,-5.522 -4.477,-10 -10,-10 -5.523,0 -10,4.478 -10,10 v 112.018 c 0,5.522 4.477,10 10,10 h 49.056 c 5.523,0 10,-4.478 10,-10 V 335.003 c 0,-33.354 7.895,-66.504 22.882,-96.275 26.423,16.774 61.463,10.464 80.335,-14.701 L 510,206.988 c 2.985,-3.983 2.589,-9.553 -0.929,-13.073 z m -128.215,85.004 -60.777,-60.777 9.811,-14.816 56.532,56.532 c -2.124,6.272 -3.979,12.633 -5.566,19.061 z m 100.366,-66.894 c -12.785,17.049 -36.682,21.134 -54.406,9.302 l -8.036,-5.365 c -2.34,-1.562 -5.229,-2.067 -7.961,-1.39 -2.731,0.678 -5.05,2.476 -6.388,4.95 l -2.274,4.207 c -2.794,5.169 -5.386,10.441 -7.777,15.799 l -53.221,-53.221 41.088,-62.053 c 0.24,-0.362 0.457,-0.74 0.647,-1.132 8.566,-17.537 22.105,-31.756 38.926,-41.106 v 48.788 c 0,2.652 1.054,5.195 2.929,7.071 l 64.048,64.051 z"
   inkscape:connector-curvature="0"
   style="fill:#437f84;fill-opacity:1" />
	</g>
</g><g
     id="g12"
     style="fill:#437f84;fill-opacity:1">
	<g
   id="g10"
   style="fill:#437f84;fill-opacity:1">
		<path
   id="path8"
   d="m 298.574,353.263 c -1.86,-1.86 -4.44,-2.93 -7.07,-2.93 -2.63,0 -5.21,1.069 -7.07,2.93 -1.86,1.86 -2.93,4.44 -2.93,7.07 0,2.63 1.07,5.21 2.93,7.069 1.86,1.87 4.44,2.931 7.07,2.931 2.63,0 5.21,-1.061 7.07,-2.931 1.86,-1.859 2.93,-4.439 2.93,-7.069 0,-2.63 -1.07,-5.21 -2.93,-7.07 z"
   inkscape:connector-curvature="0"
   style="fill:#437f84;fill-opacity:1" />
	</g>
</g><g
     id="g18"
     style="fill:#437f84;fill-opacity:1">
	<g
   id="g16"
   style="fill:#437f84;fill-opacity:1">
		<path
   id="path14"
   d="m 421.025,166.121 c -1.87,-1.861 -4.44,-2.931 -7.07,-2.931 -2.64,0 -5.21,1.07 -7.07,2.931 -1.87,1.859 -2.94,4.439 -2.94,7.069 0,2.63 1.07,5.21 2.94,7.07 1.86,1.86 4.43,2.93 7.07,2.93 2.63,0 5.2,-1.069 7.07,-2.93 1.86,-1.86 2.93,-4.44 2.93,-7.07 0,-2.63 -1.07,-5.21 -2.93,-7.069 z"
   inkscape:connector-curvature="0"
   style="fill:#437f84;fill-opacity:1" />
	</g>
</g><g
     id="g24"
     style="fill:#437f84;fill-opacity:1">
	<g
   id="g22"
   style="fill:#437f84;fill-opacity:1">
		<path
   id="path20"
   d="m 204.372,252.591 c -1.86,-1.86 -4.44,-2.93 -7.07,-2.93 -2.63,0 -5.21,1.07 -7.07,2.93 -1.86,1.86 -2.93,4.43 -2.93,7.07 0,2.63 1.07,5.21 2.93,7.069 1.86,1.86 4.44,2.931 7.07,2.931 2.63,0 5.21,-1.07 7.07,-2.931 1.86,-1.859 2.93,-4.439 2.93,-7.069 0,-2.641 -1.07,-5.21 -2.93,-7.07 z"
   inkscape:connector-curvature="0"
   style="fill:#437f84;fill-opacity:1" />
	</g>
</g></g>
<g
   id="g26"
   style="fill:#437f84;fill-opacity:1">
</g>
<g
   id="g28"
   style="fill:#437f84;fill-opacity:1">
</g>
<g
   id="g30"
   style="fill:#437f84;fill-opacity:1">
</g>
<g
   id="g32"
   style="fill:#437f84;fill-opacity:1">
</g>
<g
   id="g34"
   style="fill:#437f84;fill-opacity:1">
</g>
<g
   id="g36"
   style="fill:#437f84;fill-opacity:1">
</g>
<g
   id="g38"
   style="fill:#437f84;fill-opacity:1">
</g>
<g
   id="g40"
   style="fill:#437f84;fill-opacity:1">
</g>
<g
   id="g42"
   style="fill:#437f84;fill-opacity:1">
</g>
<g
   id="g44"
   style="fill:#437f84;fill-opacity:1">
</g>
<g
   id="g46"
   style="fill:#437f84;fill-opacity:1">
</g>
<g
   id="g48"
   style="fill:#437f84;fill-opacity:1">
</g>
<g
   id="g50"
   style="fill:#437f84;fill-opacity:1">
</g>
<g
   id="g52"
   style="fill:#437f84;fill-opacity:1">
</g>
<g
   id="g54"
   style="fill:#437f84;fill-opacity:1">
</g>
</svg>