<?xml version="1.0" encoding="UTF-8" standalone="no"?>
<!-- Generator: Adobe Illustrator 19.0.0, SVG Export Plug-In . SVG Version: 6.00 Build 0)  -->

<svg
   xmlns:dc="http://purl.org/dc/elements/1.1/"
   xmlns:cc="http://creativecommons.org/ns#"
   xmlns:rdf="http://www.w3.org/1999/02/22-rdf-syntax-ns#"
   xmlns:svg="http://www.w3.org/2000/svg"
   xmlns="http://www.w3.org/2000/svg"
   xmlns:sodipodi="http://sodipodi.sourceforge.net/DTD/sodipodi-0.dtd"
   xmlns:inkscape="http://www.inkscape.org/namespaces/inkscape"
   version="1.1"
   id="Capa_1"
   x="0px"
   y="0px"
   viewBox="0 0 512 512"
   style="enable-background:new 0 0 512 512;"
   xml:space="preserve"
   sodipodi:docname="1.svg"
   inkscape:version="0.92.3 (2405546, 2018-03-11)"><metadata
   id="metadata67"><rdf:RDF><cc:Work
       rdf:about=""><dc:format>image/svg+xml</dc:format><dc:type
         rdf:resource="http://purl.org/dc/dcmitype/StillImage" /></cc:Work></rdf:RDF></metadata><defs
   id="defs65" /><sodipodi:namedview
   pagecolor="#ffffff"
   bordercolor="#666666"
   borderopacity="1"
   objecttolerance="10"
   gridtolerance="10"
   guidetolerance="10"
   inkscape:pageopacity="0"
   inkscape:pageshadow="2"
   inkscape:window-width="1366"
   inkscape:window-height="723"
   id="namedview63"
   showgrid="false"
   inkscape:zoom="0.4609375"
   inkscape:cx="-2.1694914"
   inkscape:cy="110.64407"
   inkscape:window-x="0"
   inkscape:window-y="0"
   inkscape:window-maximized="1"
   inkscape:current-layer="Capa_1" />




<g
   id="g856"
   style="fill:#437f84;fill-opacity:1"><g
     transform="matrix(0.97572609,0,0,0.97572609,6.2141217,6.2141217)"
     id="g6"
     style="fill:#437f84;fill-opacity:1">
	<g
   id="g4"
   style="fill:#437f84;fill-opacity:1">
		<path
   inkscape:connector-curvature="0"
   id="path2"
   d="M 512,159.2 H 421.76 C 326.08,76 185.92,76 90.24,159.2 H 0 c 0,0 20.48,24.96 28.8,48.32 C 10.88,229.28 0,256.8 0,287.2 c 0,70.72 57.28,128 128,128 41.92,0 79.04,-20.48 102.4,-51.84 l 26.88,51.84 24.64,-51.52 c 23.36,31.04 60.16,51.52 102.08,51.52 70.72,0 128,-57.28 128,-128 0,-30.4 -10.88,-57.92 -28.8,-79.68 8.32,-23.36 28.8,-48.32 28.8,-48.32 z m -384,224 c -52.8,0 -96,-43.2 -96,-96 0,-52.8 43.2,-96 96,-96 52.8,0 96,43.2 96,96 0,52.8 -43.2,96 -96,96 z m 256,0 c -52.8,0 -96,-43.2 -96,-96 0,-52.8 43.2,-96 96,-96 52.8,0 96,43.2 96,96 0,52.8 -43.2,96 -96,96 z"
   style="fill:#437f84;fill-opacity:1" />
	</g>
</g><g
     transform="matrix(0.97572609,0,0,0.97572609,6.2141217,6.2141217)"
     id="g12"
     style="fill:#437f84;fill-opacity:1">
	<g
   id="g10"
   style="fill:#437f84;fill-opacity:1">
		<path
   inkscape:connector-curvature="0"
   id="path8"
   d="m 128,223.2 c -35.296,0 -64,28.704 -64,64 0,35.296 28.704,64 64,64 35.296,0 64,-28.704 64,-64 0,-35.296 -28.704,-64 -64,-64 z m 0,96 c -17.632,0 -32,-14.368 -32,-32 0,-17.632 14.368,-32 32,-32 17.632,0 32,14.368 32,32 0,17.632 -14.368,32 -32,32 z"
   style="fill:#437f84;fill-opacity:1" />
	</g>
</g><g
     transform="matrix(0.97572609,0,0,0.97572609,6.2141217,6.2141217)"
     id="g18"
     style="fill:#437f84;fill-opacity:1">
	<g
   id="g16"
   style="fill:#437f84;fill-opacity:1">
		<path
   inkscape:connector-curvature="0"
   id="path14"
   d="m 384,223.2 c -35.296,0 -64,28.704 -64,64 0,35.296 28.704,64 64,64 35.296,0 64,-28.704 64,-64 0,-35.296 -28.704,-64 -64,-64 z m 0,96 c -17.664,0 -32,-14.368 -32,-32 0,-17.632 14.336,-32 32,-32 17.664,0 32,14.368 32,32 0,17.632 -14.336,32 -32,32 z"
   style="fill:#437f84;fill-opacity:1" />
	</g>
</g><g
     transform="matrix(0.97572609,0,0,0.97572609,6.2141217,6.2141217)"
     id="g24"
     style="fill:#437f84;fill-opacity:1">
	<g
   id="g22"
   style="fill:#437f84;fill-opacity:1">
		<circle
   id="circle20"
   r="16"
   cy="287.20001"
   cx="128"
   style="fill:#437f84;fill-opacity:1" />
	</g>
</g><g
     transform="matrix(0.97572609,0,0,0.97572609,6.2141217,6.2141217)"
     id="g30"
     style="fill:#437f84;fill-opacity:1">
	<g
   id="g28"
   style="fill:#437f84;fill-opacity:1">
		<circle
   id="circle26"
   r="16"
   cy="287.20001"
   cx="384"
   style="fill:#437f84;fill-opacity:1" />
	</g>
</g></g>
<g
   id="g32">
</g>
<g
   id="g34">
</g>
<g
   id="g36">
</g>
<g
   id="g38">
</g>
<g
   id="g40">
</g>
<g
   id="g42">
</g>
<g
   id="g44">
</g>
<g
   id="g46">
</g>
<g
   id="g48">
</g>
<g
   id="g50">
</g>
<g
   id="g52">
</g>
<g
   id="g54">
</g>
<g
   id="g56">
</g>
<g
   id="g58">
</g>
<g
   id="g60">
</g>
</svg>