<?xml version="1.0" encoding="UTF-8" standalone="no"?>
<!-- Generator: Adobe Illustrator 16.0.0, SVG Export Plug-In . SVG Version: 6.00 Build 0)  -->

<svg
   xmlns:dc="http://purl.org/dc/elements/1.1/"
   xmlns:cc="http://creativecommons.org/ns#"
   xmlns:rdf="http://www.w3.org/1999/02/22-rdf-syntax-ns#"
   xmlns:svg="http://www.w3.org/2000/svg"
   xmlns="http://www.w3.org/2000/svg"
   xmlns:sodipodi="http://sodipodi.sourceforge.net/DTD/sodipodi-0.dtd"
   xmlns:inkscape="http://www.inkscape.org/namespaces/inkscape"
   version="1.1"
   id="Capa_1"
   x="0px"
   y="0px"
   width="430.113px"
   height="430.114px"
   viewBox="0 0 430.113 430.114"
   style="enable-background:new 0 0 430.113 430.114;"
   xml:space="preserve"
   sodipodi:docname="6.svg"
   inkscape:version="0.92.3 (2405546, 2018-03-11)"><metadata
   id="metadata40"><rdf:RDF><cc:Work
       rdf:about=""><dc:format>image/svg+xml</dc:format><dc:type
         rdf:resource="http://purl.org/dc/dcmitype/StillImage" /></cc:Work></rdf:RDF></metadata><defs
   id="defs38" /><sodipodi:namedview
   pagecolor="#ffffff"
   bordercolor="#666666"
   borderopacity="1"
   objecttolerance="10"
   gridtolerance="10"
   guidetolerance="10"
   inkscape:pageopacity="0"
   inkscape:pageshadow="2"
   inkscape:window-width="741"
   inkscape:window-height="480"
   id="namedview36"
   showgrid="false"
   inkscape:zoom="0.54869172"
   inkscape:cx="8.2008183"
   inkscape:cy="204.12191"
   inkscape:window-x="0"
   inkscape:window-y="0"
   inkscape:window-maximized="0"
   inkscape:current-layer="Capa_1" />
<g
   id="g3"
   transform="matrix(0.68643727,0,0,0.68643727,67.43386,67.43386)"
   style="fill:#437f84;fill-opacity:1">
	<path
   id="Facebook"
   d="m 158.081,83.3 c 0,10.839 0,59.218 0,59.218 h -43.385 v 72.412 h 43.385 v 215.183 h 89.122 V 214.936 h 59.805 c 0,0 5.601,-34.721 8.316,-72.685 -7.784,0 -67.784,0 -67.784,0 0,0 0,-42.127 0,-49.511 0,-7.4 9.717,-17.354 19.321,-17.354 9.586,0 29.818,0 48.557,0 0,-9.859 0,-43.924 0,-75.385 -25.016,0 -53.476,0 -66.021,0 C 155.878,-0.004 158.081,72.48 158.081,83.3 Z"
   inkscape:connector-curvature="0"
   style="fill:#437f84;fill-opacity:1" />
</g>
<g
   id="g5">
</g>
<g
   id="g7">
</g>
<g
   id="g9">
</g>
<g
   id="g11">
</g>
<g
   id="g13">
</g>
<g
   id="g15">
</g>
<g
   id="g17">
</g>
<g
   id="g19">
</g>
<g
   id="g21">
</g>
<g
   id="g23">
</g>
<g
   id="g25">
</g>
<g
   id="g27">
</g>
<g
   id="g29">
</g>
<g
   id="g31">
</g>
<g
   id="g33">
</g>
</svg>