<?xml version="1.0" encoding="UTF-8" standalone="no"?>
<!-- Generator: Adobe Illustrator 16.0.0, SVG Export Plug-In . SVG Version: 6.00 Build 0)  -->

<svg
   xmlns:dc="http://purl.org/dc/elements/1.1/"
   xmlns:cc="http://creativecommons.org/ns#"
   xmlns:rdf="http://www.w3.org/1999/02/22-rdf-syntax-ns#"
   xmlns:svg="http://www.w3.org/2000/svg"
   xmlns="http://www.w3.org/2000/svg"
   xmlns:sodipodi="http://sodipodi.sourceforge.net/DTD/sodipodi-0.dtd"
   xmlns:inkscape="http://www.inkscape.org/namespaces/inkscape"
   version="1.1"
   id="Capa_1"
   x="0px"
   y="0px"
   width="595.275px"
   height="595.276px"
   viewBox="0 0 595.275 595.276"
   xml:space="preserve"
   sodipodi:docname="7.svg"
   inkscape:version="0.92.3 (2405546, 2018-03-11)"><metadata
   id="metadata13"><rdf:RDF><cc:Work
       rdf:about=""><dc:format>image/svg+xml</dc:format><dc:type
         rdf:resource="http://purl.org/dc/dcmitype/StillImage" /></cc:Work></rdf:RDF></metadata><defs
   id="defs11" /><sodipodi:namedview
   pagecolor="#ffffff"
   bordercolor="#666666"
   borderopacity="1"
   objecttolerance="10"
   gridtolerance="10"
   guidetolerance="10"
   inkscape:pageopacity="0"
   inkscape:pageshadow="2"
   inkscape:window-width="741"
   inkscape:window-height="480"
   id="namedview9"
   showgrid="false"
   inkscape:zoom="0.39645475"
   inkscape:cx="166.47499"
   inkscape:cy="249.71324"
   inkscape:window-x="0"
   inkscape:window-y="0"
   inkscape:window-maximized="0"
   inkscape:current-layer="Capa_1" />
<g
   id="g6"
   style="fill:#437f84;fill-opacity:1"
   transform="matrix(0.73135433,0,0,0.73135433,80.279661,80.421001)">
	<path
   d="m 316.086,280.803 c 3.591,1.946 6.444,3.553 9.356,5.042 38.494,19.877 61.485,51.638 69.479,93.727 8.532,44.95 1.651,87.434 -25.486,125.24 -21.94,30.585 -52.688,48.7 -88.138,59.448 -22.815,6.909 -46.251,10.226 -70.078,10.266 -64.488,0.091 -128.982,0.025 -193.477,0.025 -1.638,0 -3.277,0 -5.511,0 -0.117,-2.378 -0.293,-4.349 -0.293,-6.309 C 11.859,403.863 11.773,239.47 11.735,75.1 11.728,44.919 38.317,18.101 68.386,18.043 c 49.11,-0.111 98.24,-0.862 147.33,0.203 40.857,0.894 79.267,11.335 111.895,37.539 26.7,21.437 42.393,49.313 47.328,83.231 5.485,37.716 -1.195,72.807 -22.385,104.816 -8.6,12.994 -20.078,23.194 -31.884,33.08 -1.273,1.07 -2.526,2.155 -4.584,3.891 z M 120.097,479.189 c 0.959,0.274 1.312,0.473 1.651,0.473 33.334,0.011 66.701,0.978 99.978,-0.304 25.426,-0.965 45.976,-12.588 57.494,-36.408 8.541,-17.67 10.187,-36.553 6.7,-55.778 -3.88,-21.364 -14.536,-38.171 -34.118,-48.567 -11.847,-6.282 -24.624,-8.854 -37.938,-8.895 -19.818,-0.052 -39.63,-0.012 -59.446,-0.012 -21.679,0 -34.308,11.976 -34.51,33.85 -0.347,37.403 -0.137,74.817 -0.137,112.22 0,1.084 0.202,2.168 0.326,3.421 z m -0.17,-236.493 c 30.403,0 59.852,0.64 89.255,-0.235 18.531,-0.562 34.373,-8.293 45.265,-24.173 10.754,-15.672 13.093,-33.289 12.23,-51.794 -1.405,-30.246 -24.755,-54.422 -54.929,-55.683 -18.485,-0.771 -37.024,-0.954 -55.529,-0.621 -24.787,0.457 -36.339,12.818 -36.299,37.55 0.045,29.266 0.007,58.532 0.007,87.798 0,2.182 0,4.35 0,7.158 z"
   id="path2"
   style="fill:#437f84;fill-rule:evenodd;fill-opacity:1"
   inkscape:connector-curvature="0" />
	<path
   d="m 518.783,581.028 c -33.458,0.365 -66.44,-25.585 -66.937,-67.179 -0.438,-37.232 30.369,-67.374 67.099,-67.231 36.986,0.132 66.938,30.26 66.982,67.377 0.047,36.93 -30.171,67.097 -67.144,67.033 z"
   id="path4"
   style="fill:#437f84;fill-rule:evenodd;fill-opacity:1"
   inkscape:connector-curvature="0" />
</g>
</svg>